<svg width="17" height="15" viewBox="0 0 17 15" fill="none" xmlns="http://www.w3.org/2000/svg">
<path d="M9.30838 0.000922765C9.88084 -0.00117733 10.4533 0.00432307 11.0256 0.0174223L11.1778 0.0226721C11.3535 0.0286719 11.5269 0.0361716 11.7363 0.0451713C12.571 0.08267 13.1405 0.208666 13.6403 0.39391C14.158 0.584403 14.5942 0.842394 15.0303 1.25938C15.4291 1.63407 15.7378 2.08731 15.9348 2.58758C16.1286 3.06532 16.2604 3.61055 16.2996 4.40852C16.309 4.60802 16.3169 4.77451 16.3232 4.9425L16.3279 5.088C16.3418 5.63488 16.3478 6.18191 16.3459 6.72894L16.3467 7.28843V8.27089C16.3486 8.81818 16.3426 9.36546 16.3286 9.91259L16.3239 10.0581C16.3177 10.2261 16.3098 10.3918 16.3004 10.5921C16.2612 11.39 16.1278 11.9345 15.9348 12.4123C15.7384 12.9131 15.4297 13.3667 15.0303 13.7412C14.6381 14.1224 14.1637 14.4175 13.6403 14.6059C13.1405 14.7912 12.571 14.9172 11.7363 14.9547C11.5269 14.9637 11.3535 14.9712 11.1778 14.9772L11.0256 14.9817C10.4533 14.995 9.88084 15.0007 9.30838 14.9989L8.72316 14.9997H7.69628C7.12382 15.0015 6.55136 14.9958 5.97907 14.9824L5.82688 14.9779C5.64065 14.9715 5.45447 14.964 5.26833 14.9554C4.43365 14.9179 3.86412 14.7904 3.36363 14.6059C2.84014 14.4179 2.36596 14.1228 1.97432 13.7412C1.57506 13.3664 1.26612 12.9129 1.06904 12.4123C0.875275 11.9345 0.743483 11.39 0.704259 10.5921C0.695523 10.4141 0.687678 10.2361 0.680725 10.0581L0.676803 9.91259C0.66234 9.36547 0.655802 8.81818 0.657191 8.27089V6.72894C0.655001 6.18191 0.660755 5.63488 0.674449 5.088L0.679941 4.9425C0.686217 4.77451 0.694061 4.60802 0.703475 4.40852C0.742699 3.6098 0.87449 3.06607 1.06826 2.58758C1.26545 2.08707 1.575 1.63395 1.97511 1.26013C2.36648 0.878207 2.84035 0.582583 3.36363 0.39391C3.86412 0.208666 4.43287 0.08267 5.26833 0.0451713L5.82688 0.0226721L5.97907 0.0189223C6.5511 0.00510236 7.12329 -0.0011481 7.6955 0.000172845L9.30838 0.000922765ZM8.50194 3.7508C7.98223 3.74377 7.46624 3.83556 6.98396 4.02084C6.50168 4.20611 6.06273 4.48118 5.69261 4.83005C5.3225 5.17892 5.0286 5.59464 4.828 6.05304C4.6274 6.51144 4.5241 7.00339 4.5241 7.50029C4.5241 7.9972 4.6274 8.48914 4.828 8.94755C5.0286 9.40595 5.3225 9.82167 5.69261 10.1705C6.06273 10.5194 6.50168 10.7945 6.98396 10.9797C7.46624 11.165 7.98223 11.2568 8.50194 11.2498C9.54222 11.2498 10.5399 10.8547 11.2755 10.1515C12.0111 9.44824 12.4243 8.49445 12.4243 7.49992C12.4243 6.50539 12.0111 5.55159 11.2755 4.84836C10.5399 4.14512 9.54222 3.7508 8.50194 3.7508ZM8.50194 5.25074C8.81456 5.24524 9.12519 5.29934 9.41569 5.40989C9.7062 5.52045 9.97074 5.68524 10.1939 5.89463C10.417 6.10403 10.5943 6.35383 10.7153 6.62945C10.8363 6.90508 10.8987 7.20099 10.8987 7.49991C10.8988 7.79883 10.8365 8.09477 10.7156 8.37043C10.5947 8.64609 10.4175 8.89595 10.1944 9.10542C9.97137 9.31488 9.70689 9.47975 9.41642 9.5904C9.12596 9.70105 8.81535 9.75525 8.50273 9.74984C7.87856 9.74984 7.27996 9.5128 6.8386 9.09085C6.39725 8.66891 6.1493 8.09663 6.1493 7.49992C6.1493 6.9032 6.39725 6.33092 6.8386 5.90898C7.27996 5.48704 7.87856 5.24999 8.50273 5.24999L8.50194 5.25074ZM12.6204 2.62583C12.3674 2.63552 12.128 2.73844 11.9525 2.91305C11.7771 3.08766 11.6791 3.32041 11.6791 3.56255C11.6791 3.80469 11.7771 4.03744 11.9525 4.21205C12.128 4.38666 12.3674 4.48959 12.6204 4.49927C12.8805 4.49927 13.1299 4.4005 13.3138 4.22469C13.4977 4.04888 13.601 3.81043 13.601 3.5618C13.601 3.31317 13.4977 3.07472 13.3138 2.89891C13.1299 2.7231 12.8805 2.62433 12.6204 2.62433V2.62583Z" fill="#C4E332"/>
</svg>
