<svg width="18" height="12" viewBox="0 0 18 12" fill="none" xmlns="http://www.w3.org/2000/svg">
<path d="M2.925 5.23139e-09H15.075C15.8221 -4.076e-05 16.5409 0.238165 17.084 0.665754C17.6271 1.09334 17.9532 1.6779 17.9955 2.2995L18 2.4375V9.5625C18 10.1851 17.7142 10.7841 17.2011 11.2367C16.688 11.6892 15.9865 11.961 15.2406 11.9963L15.075 12H2.925C2.17788 12 1.45905 11.7618 0.915992 11.3342C0.37293 10.9067 0.0467988 10.3221 0.00450011 9.7005L6.27767e-09 9.5625V2.4375C-4.89121e-05 1.8149 0.285799 1.21588 0.798905 0.763327C1.31201 0.310775 2.01347 0.038999 2.7594 0.00375009L2.925 5.23139e-09ZM16.65 4.02975L9.315 7.24725C9.23218 7.28371 9.14115 7.30541 9.04772 7.31096C8.95429 7.31651 8.86049 7.3058 8.7723 7.2795L8.6859 7.248L1.35 4.0305V9.5625C1.35001 9.89189 1.49865 10.2092 1.76641 10.4515C2.03417 10.6938 2.40147 10.8434 2.7954 10.8705L2.925 10.875H15.075C15.4704 10.875 15.8513 10.751 16.1421 10.5277C16.4329 10.3044 16.6123 9.99816 16.6446 9.66975L16.65 9.5625V4.02975ZM15.075 1.125H2.925C2.52973 1.12501 2.14891 1.24888 1.85815 1.47201C1.56738 1.69514 1.38793 2.00122 1.3554 2.3295L1.35 2.4375V2.75925L9 6.114L16.65 2.7585V2.4375C16.65 2.10799 16.5012 1.79054 16.2333 1.54822C15.9653 1.3059 15.5978 1.15643 15.2037 1.1295L15.075 1.125Z" fill="#C4E332"/>
</svg>
