<?xml version="1.0" encoding="UTF-8"?>
<!-- Generator: visioncortex VTracer 0.6.3 -->
<svg version="1.1" xmlns="http://www.w3.org/2000/svg" width="1280" height="720">
<path d="M0 0 C0.75 -0 1.49 -0 2.26 -0.01 C4.75 -0.01 7.24 -0.01 9.73 -0.01 C11.52 -0.01 13.31 -0.02 15.1 -0.02 C19.95 -0.03 24.81 -0.03 29.66 -0.03 C32.7 -0.03 35.74 -0.04 38.78 -0.04 C49.4 -0.05 60.02 -0.05 70.64 -0.05 C80.51 -0.05 90.38 -0.06 100.25 -0.08 C108.74 -0.09 117.23 -0.1 125.72 -0.1 C130.79 -0.09 135.85 -0.1 140.92 -0.11 C145.69 -0.12 150.46 -0.12 155.23 -0.11 C156.97 -0.11 158.71 -0.11 160.45 -0.12 C188.28 -0.21 188.28 -0.21 196.39 5.13 C199 6 201.62 6.69 204.28 7.39 C206.39 8.13 206.39 8.13 207.39 10.13 C209.37 10.86 211.37 11.53 213.39 12.13 C213.39 12.79 213.39 13.45 213.39 14.13 C214.57 14.6 214.57 14.6 215.77 15.07 C218.39 16.13 218.39 16.13 220.39 17.13 C220.39 17.79 220.39 18.45 220.39 19.13 C221.38 19.13 222.37 19.13 223.39 19.13 C224.89 20.45 224.89 20.45 226.39 22.13 C226.95 22.65 227.51 23.16 228.08 23.7 C229.39 25.13 229.39 25.13 229.39 27.13 C230.01 27.22 230.63 27.3 231.27 27.38 C233.39 28.13 233.39 28.13 234.33 29.88 C234.68 30.63 235.03 31.37 235.39 32.13 C236.26 33 237.13 33.87 238.02 34.76 C240.39 37.13 240.39 37.13 240.39 39.13 C241.38 39.46 242.37 39.79 243.39 40.13 C243.39 41.78 243.39 43.43 243.39 45.13 C244.05 45.13 244.71 45.13 245.39 45.13 C248.11 47.75 248.39 49.04 248.58 52.88 C248.49 54.49 248.49 54.49 248.39 56.13 C249.38 56.46 250.37 56.79 251.39 57.13 C254.99 62.38 255.08 67.97 255.39 74.13 C255.72 74.13 256.05 74.13 256.39 74.13 C256.39 78.75 256.39 83.37 256.39 88.13 C255.73 88.13 255.07 88.13 254.39 88.13 C254.42 88.77 254.44 89.41 254.46 90.07 C254.54 92.99 254.59 95.9 254.64 98.82 C254.68 99.83 254.71 100.84 254.75 101.87 C254.84 109.37 254.84 109.37 252.5 113.34 C250.39 115.13 250.39 115.13 248.39 115.13 C248.5 116.43 248.6 117.73 248.71 119.07 C248.71 125.77 245.73 130.77 241.1 135.46 C240.21 136.34 239.31 137.22 238.39 138.13 C236.77 139.79 235.15 141.45 233.52 143.11 C232.14 144.51 230.76 145.92 229.37 147.32 C228.43 148.28 227.48 149.24 226.54 150.21 C225.17 151.62 223.78 153.02 222.4 154.42 C221.58 155.26 220.76 156.09 219.92 156.94 C215.85 160.47 211.71 162.35 206.39 163.13 C206.39 164.78 206.39 166.43 206.39 168.13 C207.12 168.42 207.84 168.71 208.58 169.01 C211.19 170.05 213.79 171.09 216.39 172.13 C216.72 171.47 217.05 170.81 217.39 170.13 C217.39 170.79 217.39 171.45 217.39 172.13 C263.26 172.13 309.13 172.13 356.39 172.13 C356.72 171.14 357.05 170.15 357.39 169.13 C358.05 167.79 358.71 166.46 359.39 165.13 C358.28 164.79 358.28 164.79 357.14 164.45 C354.39 163.13 354.39 163.13 352.39 160.57 C350.02 157.68 348.96 157.68 345.39 157.13 C343.83 155.76 343.83 155.76 342.39 154.13 C341.67 153.62 340.95 153.1 340.21 152.57 C339.61 152.1 339.01 151.62 338.39 151.13 C338.39 150.47 338.39 149.81 338.39 149.13 C337.56 148.95 337.56 148.95 336.71 148.76 C334.11 148.06 331.8 147.37 329.39 146.13 C329.06 144.8 328.73 143.47 328.39 142.13 C326.13 141.06 326.13 141.06 323.39 140.13 C317.62 136.58 317.62 136.58 316.39 134.13 C315.67 133.74 314.95 133.35 314.21 132.95 C310.57 130.6 307.88 127.68 305.39 124.13 C305.39 123.47 305.39 122.81 305.39 122.13 C304.4 121.8 303.41 121.47 302.39 121.13 C300.52 117.9 299.1 114.81 298.39 111.13 C297.73 111.13 297.07 111.13 296.39 111.13 C296.28 110.47 296.17 109.81 296.06 109.12 C295.82 107.8 295.82 107.8 295.58 106.45 C295.43 105.58 295.28 104.71 295.12 103.81 C294.55 101.09 294.55 101.09 292.87 99 C290.91 95.18 291.02 91.74 291.1 87.55 C291.11 86.74 291.11 85.92 291.11 85.08 C291.13 82.5 291.17 79.91 291.21 77.32 C291.22 75.56 291.24 73.8 291.25 72.04 C291.28 67.74 291.33 63.44 291.39 59.13 C292.88 58.64 292.88 58.64 294.39 58.13 C295.62 54.62 295.62 54.62 296.39 51.13 C295.73 50.8 295.07 50.47 294.39 50.13 C295.05 50.13 295.71 50.13 296.39 50.13 C296.72 48.15 297.05 46.17 297.39 44.13 C298.88 43.64 298.88 43.64 300.39 43.13 C300.22 42.08 300.22 42.08 300.04 41.01 C300.56 36.83 303.12 34.87 306.08 32.13 C306.61 31.63 307.14 31.12 307.69 30.59 C308.75 29.58 309.81 28.58 310.87 27.57 C313.87 24.74 316.77 21.81 319.57 18.78 C324.24 13.81 327.79 10.94 334.39 9.13 C334.39 8.47 334.39 7.81 334.39 7.13 C336.04 7.13 337.69 7.13 339.39 7.13 C339.72 6.47 340.05 5.81 340.39 5.13 C343.46 4.51 343.46 4.51 346.39 4.13 C346.39 3.47 346.39 2.81 346.39 2.13 C356.88 0.62 367.12 -0.16 377.73 -0.13 C379.19 -0.13 380.64 -0.13 382.09 -0.14 C385.99 -0.14 389.88 -0.14 393.77 -0.13 C397.86 -0.13 401.96 -0.13 406.05 -0.14 C412.9 -0.14 419.76 -0.14 426.61 -0.13 C434.53 -0.12 442.46 -0.12 450.38 -0.13 C457.2 -0.14 464.03 -0.14 470.85 -0.14 C474.92 -0.13 478.98 -0.13 483.05 -0.14 C486.86 -0.14 490.67 -0.14 494.49 -0.13 C495.88 -0.13 497.28 -0.13 498.68 -0.13 C500.59 -0.14 502.5 -0.13 504.4 -0.12 C505.47 -0.12 506.54 -0.12 507.64 -0.12 C510.39 0.13 510.39 0.13 514.39 2.13 C514.39 28.53 514.39 54.93 514.39 82.13 C507.45 82.18 500.51 82.23 493.35 82.28 C488.95 82.32 484.56 82.35 480.16 82.39 C473.18 82.45 466.2 82.51 459.21 82.56 C453.59 82.59 447.96 82.64 442.33 82.69 C440.18 82.71 438.03 82.73 435.89 82.74 C432.88 82.75 429.87 82.78 426.87 82.81 C425.53 82.82 425.53 82.82 424.17 82.82 C418.03 82.88 418.03 82.88 412.39 85.13 C411.5 88.19 411.5 88.19 411.39 91.13 C411.9 91.51 412.41 91.88 412.93 92.27 C417.2 95.44 421.31 98.73 425.39 102.13 C429.27 105.18 432.97 107.95 437.39 110.13 C438.42 111.11 439.41 112.11 440.39 113.13 C441.12 113.65 441.84 114.16 442.58 114.7 C443.18 115.17 443.78 115.64 444.39 116.13 C444.39 116.79 444.39 117.45 444.39 118.13 C445.28 118.36 446.16 118.6 447.07 118.83 C450.87 120.32 452.79 122.04 455.65 124.93 C456.12 125.4 456.59 125.87 457.08 126.36 C458.06 127.35 459.05 128.35 460.03 129.35 C461.51 130.88 463.01 132.38 464.52 133.88 C473.15 142.61 480.64 151.43 480.64 164.26 C480.58 165.88 480.51 167.51 480.39 169.13 C481.05 169.13 481.71 169.13 482.39 169.13 C485.48 180.55 484.39 189.75 481.39 201.13 C480.73 201.13 480.07 201.13 479.39 201.13 C479.5 202.43 479.6 203.73 479.71 205.07 C479.75 210.71 477.44 214.53 474.39 219.13 C473.73 219.13 473.07 219.13 472.39 219.13 C472.11 220.15 472.11 220.15 471.81 221.2 C469.84 225.29 466.94 227.99 463.71 231.13 C463.11 231.74 462.51 232.34 461.89 232.96 C452.01 242.72 452.01 242.72 446.21 243.63 C443.15 243.85 443.15 243.85 441.46 246.7 C440.78 247.5 440.1 248.3 439.39 249.13 C437.06 249.13 434.73 249.13 432.39 249.13 C431.71 249.95 431.03 250.76 430.32 251.59 C426.04 255.3 422.45 254.82 416.96 254.76 C415.89 254.76 414.83 254.77 413.74 254.77 C410.17 254.79 406.6 254.77 403.04 254.75 C400.48 254.75 397.93 254.76 395.38 254.77 C389.16 254.78 382.93 254.77 376.71 254.75 C369.47 254.72 362.23 254.72 354.98 254.73 C342.06 254.73 329.13 254.71 316.21 254.68 C303.67 254.64 291.12 254.63 278.58 254.63 C264.92 254.64 251.27 254.64 237.61 254.62 C236.53 254.62 236.53 254.62 235.42 254.62 C233.97 254.61 232.52 254.61 231.07 254.61 C226.02 254.6 220.97 254.6 215.92 254.6 C209.12 254.61 202.33 254.59 195.53 254.56 C193.04 254.56 190.54 254.56 188.04 254.56 C184.64 254.56 181.24 254.55 177.83 254.53 C176.84 254.53 175.84 254.54 174.82 254.54 C169.75 254.49 166.6 254.24 162.39 251.13 C161.22 250.84 160.04 250.56 158.83 250.26 C154.78 248.93 153.94 247.42 151.39 244.13 C149.42 243.4 147.41 242.74 145.39 242.13 C142.02 240.13 142.02 240.13 139.39 238.13 C139.39 237.47 139.39 236.81 139.39 236.13 C138.84 236.07 138.28 236.01 137.71 235.95 C134.42 234.79 132.82 232.64 130.39 230.13 C129.36 229.1 128.32 228.06 127.28 227.03 C124.18 223.96 121.1 220.88 118.01 217.81 C116.69 216.49 115.36 215.17 114.04 213.85 C100.67 200.57 100.67 200.57 95.67 194.64 C92.29 190.65 88.52 187.31 84.39 184.13 C84.39 186.54 84.42 188.96 84.44 191.37 C84.49 198.02 84.52 204.67 84.55 211.32 C84.57 215.35 84.59 219.38 84.62 223.41 C84.65 227.3 84.67 231.2 84.68 235.09 C84.68 236.57 84.7 238.06 84.71 239.54 C84.73 241.62 84.74 243.7 84.73 245.77 C84.74 247.55 84.74 247.55 84.75 249.36 C84.64 250.27 84.52 251.19 84.39 252.13 C80.42 254.78 76.98 254.42 72.36 254.41 C71.44 254.41 70.52 254.42 69.57 254.42 C66.51 254.44 63.45 254.44 60.39 254.43 C58.27 254.44 56.15 254.44 54.03 254.45 C49.58 254.45 45.14 254.45 40.69 254.45 C34.98 254.44 29.27 254.46 23.56 254.48 C19.18 254.5 14.8 254.5 10.42 254.5 C8.32 254.5 6.21 254.5 4.11 254.51 C1.17 254.52 -1.77 254.52 -4.71 254.51 C-5.58 254.51 -6.46 254.52 -7.36 254.53 C-9.78 254.51 -9.78 254.51 -13.61 254.13 C-15.67 251.04 -15.86 250.41 -15.86 246.92 C-15.86 246.05 -15.87 245.19 -15.87 244.3 C-15.87 243.35 -15.86 242.4 -15.86 241.42 C-15.86 239.9 -15.86 239.9 -15.87 238.36 C-15.88 234.96 -15.87 231.56 -15.86 228.17 C-15.87 225.74 -15.87 223.31 -15.88 220.88 C-15.88 214.96 -15.88 209.04 -15.88 203.11 C-15.87 198.3 -15.87 193.49 -15.87 188.68 C-15.87 187.99 -15.87 187.31 -15.87 186.6 C-15.88 185.21 -15.88 183.82 -15.88 182.43 C-15.88 169.39 -15.88 156.35 -15.86 143.31 C-15.86 132.12 -15.86 120.92 -15.87 109.73 C-15.88 96.73 -15.88 83.74 -15.88 70.75 C-15.87 69.36 -15.87 67.98 -15.87 66.59 C-15.87 65.91 -15.87 65.23 -15.87 64.53 C-15.87 59.72 -15.87 54.91 -15.88 50.1 C-15.88 43.63 -15.88 37.17 -15.87 30.7 C-15.87 28.32 -15.87 25.94 -15.87 23.56 C-15.88 20.33 -15.87 17.09 -15.86 13.85 C-15.86 12.9 -15.87 11.95 -15.87 10.97 C-15.87 9.67 -15.87 9.67 -15.86 8.35 C-15.86 7.23 -15.86 7.23 -15.86 6.09 C-15.61 4.13 -15.61 4.13 -13.61 1.13 C-9.12 -0.02 -4.61 -0.01 0 0 Z M82.39 66.13 C83.05 66.79 83.71 67.45 84.39 68.13 C84.57 70.71 84.63 73.19 84.59 75.77 C84.59 76.52 84.58 77.27 84.58 78.04 C84.57 80.45 84.54 82.85 84.52 85.26 C84.51 86.89 84.5 88.52 84.49 90.15 C84.47 94.14 84.44 98.14 84.39 102.13 C92.36 102.25 100.32 102.34 108.28 102.39 C111.98 102.42 115.68 102.45 119.38 102.51 C122.95 102.57 126.52 102.6 130.09 102.61 C131.45 102.62 132.81 102.64 134.17 102.66 C142.27 102.82 147.33 102.75 153.39 97.13 C154.38 96.64 154.38 96.64 155.39 96.13 C157.36 89.42 158.57 81.66 155.39 75.13 C154.4 74.8 153.41 74.47 152.39 74.13 C152.39 73.14 152.39 72.15 152.39 71.13 C148.75 69.86 145.2 68.81 141.39 68.13 C141.39 67.47 141.39 66.81 141.39 66.13 C121.92 66.13 102.45 66.13 82.39 66.13 Z M253.39 76.13 C254.39 80.13 254.39 80.13 254.39 80.13 Z M82.39 83.13 C83.39 87.13 83.39 87.13 83.39 87.13 Z M82.39 93.13 C82.39 94.78 82.39 96.43 82.39 98.13 C82.72 98.13 83.05 98.13 83.39 98.13 C83.39 96.48 83.39 94.83 83.39 93.13 C83.06 93.13 82.73 93.13 82.39 93.13 Z M241.39 125.13 C242.39 127.13 242.39 127.13 242.39 127.13 Z M240.39 127.13 C241.39 129.13 241.39 129.13 241.39 129.13 Z M82.39 191.13 C82.39 192.78 82.39 194.43 82.39 196.13 C82.72 196.13 83.05 196.13 83.39 196.13 C83.39 194.48 83.39 192.83 83.39 191.13 C83.06 191.13 82.73 191.13 82.39 191.13 Z M82.39 198.13 C82.39 200.77 82.39 203.41 82.39 206.13 C82.72 206.13 83.05 206.13 83.39 206.13 C83.39 203.49 83.39 200.85 83.39 198.13 C83.06 198.13 82.73 198.13 82.39 198.13 Z M472.39 211.13 C473.39 214.13 473.39 214.13 473.39 214.13 Z " fill="#FBFBFB" transform="translate(713.6059417724609,357.8662872314453)"/>
<path d="M0 0 C1.53 -0 3.07 -0 4.6 -0.01 C8.78 -0.01 12.95 -0 17.12 0.01 C21.64 0.02 26.16 0.01 30.68 0.01 C38.49 0.01 46.3 0.02 54.11 0.03 C65.4 0.05 76.7 0.05 87.99 0.05 C106.32 0.06 124.65 0.07 142.97 0.09 C160.77 0.11 178.56 0.12 196.36 0.13 C198.01 0.13 198.01 0.13 199.69 0.13 C205.2 0.13 210.71 0.14 216.22 0.14 C261.87 0.16 307.53 0.2 353.19 0.24 C353.19 0.9 353.19 1.56 353.19 2.24 C354.18 2.24 355.17 2.24 356.19 2.24 C357.67 5.21 357.33 8.23 357.33 11.49 C357.34 12.61 357.34 12.61 357.34 13.75 C357.35 16.23 357.35 18.7 357.36 21.17 C357.36 22.89 357.36 24.61 357.37 26.32 C357.37 29.92 357.37 33.52 357.37 37.12 C357.37 41.74 357.39 46.36 357.4 50.98 C357.41 54.52 357.42 58.07 357.42 61.62 C357.42 63.32 357.42 65.02 357.43 66.72 C357.44 69.1 357.44 71.48 357.43 73.86 C357.44 74.57 357.44 75.28 357.45 76 C357.42 79.65 357.27 81.12 355.19 84.24 C352.47 84.53 349.97 84.62 347.25 84.58 C346.43 84.58 345.61 84.58 344.77 84.58 C342.05 84.58 339.33 84.56 336.62 84.53 C334.74 84.53 332.86 84.52 330.98 84.52 C326.02 84.51 321.07 84.48 316.11 84.45 C311.06 84.42 306 84.4 300.95 84.39 C291.03 84.35 281.11 84.3 271.19 84.24 C271.19 85.1 271.19 85.97 271.2 86.86 C271.26 107.86 271.31 128.85 271.34 149.85 C271.36 160 271.38 170.16 271.41 180.31 C271.44 189.16 271.46 198.01 271.47 206.85 C271.47 211.54 271.48 216.23 271.5 220.92 C271.52 225.32 271.53 229.73 271.53 234.14 C271.53 235.76 271.53 237.38 271.55 239 C271.56 241.21 271.56 243.42 271.55 245.62 C271.55 246.86 271.55 248.1 271.56 249.37 C271.37 250.79 271.37 250.79 271.19 252.24 C267.2 254.9 263.75 254.51 259.13 254.47 C258.2 254.47 257.27 254.47 256.32 254.47 C253.25 254.47 250.18 254.45 247.11 254.44 C244.99 254.43 242.86 254.43 240.74 254.43 C235.14 254.42 229.54 254.4 223.94 254.38 C218.23 254.36 212.52 254.35 206.81 254.34 C195.6 254.32 184.4 254.28 173.19 254.24 C172.04 250.81 172.06 248.19 172.07 244.58 C172.07 243.56 172.07 243.56 172.06 242.52 C172.06 240.23 172.07 237.95 172.07 235.66 C172.07 234.03 172.07 232.39 172.07 230.75 C172.07 226.31 172.08 221.86 172.09 217.42 C172.09 212.77 172.09 208.13 172.09 203.48 C172.1 194.69 172.11 185.89 172.12 177.09 C172.13 167.08 172.13 157.06 172.14 147.05 C172.15 126.45 172.17 105.84 172.19 85.24 C155.01 85.11 137.84 84.98 120.66 84.85 C112.68 84.79 104.71 84.73 96.73 84.67 C89.79 84.61 82.84 84.56 75.89 84.51 C72.21 84.48 68.53 84.45 64.84 84.43 C60.74 84.39 56.64 84.36 52.53 84.33 C51.3 84.32 50.08 84.31 48.81 84.3 C47.14 84.29 47.14 84.29 45.44 84.28 C44.47 84.27 43.5 84.26 42.5 84.26 C39.03 84.23 37.15 84.3 34.19 86.24 C32.9 88.78 32.9 88.78 32.19 91.24 C33.18 91.57 34.17 91.9 35.19 92.24 C36.52 93.57 37.85 94.91 39.19 96.24 C40.26 96.94 41.33 97.64 42.44 98.37 C43.35 98.98 44.25 99.6 45.19 100.24 C45.19 100.9 45.19 101.56 45.19 102.24 C45.74 102.32 46.3 102.41 46.88 102.49 C49.92 103.48 51.84 105.09 54.19 107.24 C54.19 107.9 54.19 108.56 54.19 109.24 C57.16 110.23 57.16 110.23 60.19 111.24 C60.19 111.9 60.19 112.56 60.19 113.24 C63.16 114.23 63.16 114.23 66.19 115.24 C66.19 116.23 66.19 117.22 66.19 118.24 C67.24 118.02 67.24 118.02 68.31 117.8 C72.84 118.49 74.47 121.78 77.19 125.24 C78.83 126.93 80.5 128.59 82.19 130.24 C83.73 131.78 85.27 133.32 86.81 134.87 C87.57 135.62 88.32 136.38 89.1 137.15 C89.79 137.84 90.48 138.53 91.19 139.24 C91.73 139.78 92.27 140.32 92.83 140.87 C97.11 145.18 98.7 148.09 99.19 154.24 C99.85 154.24 100.51 154.24 101.19 154.24 C101.81 159.27 102.32 164.17 102.19 169.24 C102.85 169.24 103.51 169.24 104.19 169.24 C107.47 180.12 106.16 190.19 104.19 201.24 C103.53 201.24 102.87 201.24 102.19 201.24 C102.25 202.48 102.31 203.72 102.38 204.99 C102.38 208.78 101.75 210.38 99.19 213.24 C98.86 214.13 98.53 215.01 98.19 215.93 C97.86 216.69 97.53 217.45 97.19 218.24 C96.2 218.57 95.21 218.9 94.19 219.24 C93.83 220.57 93.5 221.9 93.19 223.24 C91.81 224.99 91.81 224.99 90.05 226.74 C89.41 227.38 88.77 228.02 88.11 228.68 C87.1 229.67 87.1 229.67 86.06 230.68 C85.41 231.33 84.76 231.99 84.09 232.66 C73.8 242.84 73.8 242.84 67.94 243.74 C64.94 243.96 64.94 243.96 63.31 246.8 C62.76 248.01 62.76 248.01 62.19 249.24 C59.55 248.91 56.91 248.58 54.19 248.24 C54.19 249.23 54.19 250.22 54.19 251.24 C50.32 254.35 47.17 254.62 42.3 254.62 C41.62 254.63 40.94 254.63 40.23 254.64 C37.96 254.65 35.69 254.64 33.41 254.63 C31.78 254.63 30.15 254.64 28.51 254.64 C24.09 254.66 19.66 254.65 15.23 254.64 C10.59 254.64 5.96 254.64 1.33 254.65 C-6.45 254.65 -14.23 254.65 -22 254.63 C-31 254.62 -40 254.62 -49 254.64 C-56.72 254.65 -64.45 254.65 -72.17 254.64 C-76.78 254.64 -81.4 254.64 -86.01 254.65 C-90.35 254.66 -94.68 254.65 -99.02 254.63 C-100.61 254.63 -102.2 254.63 -103.8 254.64 C-105.97 254.65 -108.13 254.64 -110.3 254.62 C-112.13 254.62 -112.13 254.62 -113.99 254.62 C-114.92 254.49 -115.85 254.37 -116.81 254.24 C-119.23 250.62 -119.08 248.01 -119.04 243.83 C-119.04 243.08 -119.04 242.33 -119.04 241.55 C-119.04 239.07 -119.02 236.59 -119.01 234.1 C-119 232.38 -119 230.66 -119 228.94 C-118.99 224.41 -118.97 219.87 -118.95 215.34 C-118.93 210.72 -118.92 206.09 -118.91 201.47 C-118.89 192.39 -118.85 183.32 -118.81 174.24 C-113.31 172.39 -108.53 171.96 -102.76 172.01 C-101.88 172.01 -101 172.01 -100.09 172.01 C-97.21 172.01 -94.33 172.03 -91.44 172.05 C-89.43 172.05 -87.43 172.05 -85.42 172.05 C-80.15 172.06 -74.88 172.08 -69.61 172.1 C-64.23 172.12 -58.85 172.13 -53.46 172.14 C-42.91 172.16 -32.36 172.2 -21.81 172.24 C-21.48 171.25 -21.15 170.26 -20.81 169.24 C-20.16 167.9 -19.5 166.56 -18.81 165.24 C-19.93 164.9 -19.93 164.9 -21.06 164.55 C-24.34 162.99 -25.57 161.05 -27.81 158.24 C-30.2 157.13 -30.2 157.13 -32.81 156.24 C-38.59 152.68 -38.59 152.68 -39.81 150.24 C-41.8 149.2 -43.84 148.33 -45.9 147.44 C-48.21 145.99 -48.7 144.67 -49.81 142.24 C-51.45 141.51 -53.13 140.85 -54.81 140.24 C-58.19 138.14 -61.03 136.05 -63.81 133.24 C-65.59 131.75 -67.39 130.29 -69.19 128.84 C-70.96 127.1 -71.76 125.47 -72.81 123.24 C-73.45 122.6 -74.09 121.96 -74.75 121.3 C-76.97 119.08 -78.41 117.05 -79.81 114.24 C-79.81 112.92 -79.81 111.6 -79.81 110.24 C-80.47 110.24 -81.13 110.24 -81.81 110.24 C-81.93 109.57 -82.05 108.89 -82.18 108.19 C-82.43 106.86 -82.43 106.86 -82.69 105.49 C-82.85 104.61 -83.01 103.73 -83.18 102.82 C-83.78 100.35 -84.62 98.47 -85.81 96.24 C-86.93 92.88 -86.94 90.32 -86.95 86.78 C-86.95 84.87 -86.95 84.87 -86.95 82.91 C-86.95 81.92 -86.95 81.92 -86.94 80.9 C-86.94 78.88 -86.94 76.86 -86.95 74.84 C-86.95 73.56 -86.95 72.28 -86.95 70.97 C-86.94 69.8 -86.94 68.63 -86.94 67.42 C-86.82 64.55 -86.61 62 -85.81 59.24 C-85.15 58.91 -84.49 58.58 -83.81 58.24 C-83.35 56.11 -83.35 56.11 -83.19 53.68 C-83.11 52.85 -83.04 52.03 -82.96 51.17 C-82.91 50.54 -82.86 49.9 -82.81 49.24 C-82.15 49.24 -81.49 49.24 -80.81 49.24 C-80.81 47.92 -80.81 46.6 -80.81 45.24 C-79.82 45.24 -78.83 45.24 -77.81 45.24 C-77.7 43.98 -77.58 42.72 -77.46 41.43 C-76.02 34.93 -71.55 31.1 -66.85 26.64 C-65.37 25.23 -63.9 23.8 -62.44 22.35 C-55.3 15.4 -55.3 15.4 -51.81 14.24 C-51.48 13.25 -51.15 12.26 -50.81 11.24 C-47.35 10.75 -47.35 10.75 -43.81 10.24 C-43.81 9.25 -43.81 8.26 -43.81 7.24 C-43.03 7.12 -42.24 6.99 -41.44 6.87 C-38.67 6.45 -38.67 6.45 -36.81 4.24 C-36.81 4.9 -36.81 5.56 -36.81 6.24 C-33.84 5.75 -33.84 5.75 -30.81 5.24 C-30.81 4.25 -30.81 3.26 -30.81 2.24 C-20.48 0.61 -10.47 -0.05 0 0 Z M94.19 212.24 C95.19 214.24 95.19 214.24 95.19 214.24 Z " fill="#FBFBFB" transform="translate(241.81248474121094,40.759490966796875)"/>
<path d="M0 0 C0.87 -0 1.74 -0 2.64 -0.01 C5.51 -0.01 8.37 0 11.24 0.01 C13.24 0.01 15.23 0.01 17.23 0.01 C21.41 0.02 25.59 0.02 29.77 0.04 C35.12 0.05 40.48 0.06 45.84 0.06 C49.96 0.06 54.08 0.06 58.2 0.07 C60.18 0.07 62.15 0.08 64.13 0.08 C66.89 0.08 69.65 0.09 72.4 0.1 C73.22 0.1 74.03 0.1 74.88 0.1 C81.83 0.14 81.83 0.14 85.01 1.24 C87.68 5.36 88.63 9.53 89.48 14.29 C89.89 16.46 89.89 16.46 92.01 18.24 C92.2 20.84 92.2 20.84 92.13 23.87 C92.11 24.87 92.1 25.87 92.08 26.91 C92.05 27.68 92.03 28.45 92.01 29.24 C92.67 29.24 93.33 29.24 94.01 29.24 C94.14 29.81 94.27 30.37 94.41 30.96 C94.67 32.06 94.67 32.06 94.94 33.18 C95.12 33.91 95.29 34.64 95.47 35.4 C95.85 37.24 95.85 37.24 97.01 38.24 C97.08 40.43 97.09 42.62 97.07 44.81 C97.06 46 97.05 47.2 97.04 48.43 C97.03 49.36 97.02 50.29 97.01 51.24 C97.67 51.24 98.33 51.24 99.01 51.24 C102.87 58 102.29 64.63 102.01 72.24 C104.93 72.47 104.93 72.47 107.01 71.24 C107.4 69.38 107.4 69.38 107.51 67.24 C107.66 65.06 107.66 65.06 108.01 63.24 C108.67 62.91 109.33 62.58 110.01 62.24 C110.73 60.26 111.41 58.26 112.01 56.24 C111.35 55.91 110.69 55.58 110.01 55.24 C110.67 55.24 111.33 55.24 112.01 55.24 C112.34 50.95 112.67 46.66 113.01 42.24 C113.67 42.24 114.33 42.24 115.01 42.24 C115.67 39.93 116.33 37.62 117.01 35.24 C116.35 34.91 115.69 34.58 115.01 34.24 C115.67 33.91 116.33 33.58 117.01 33.24 C117.4 30.95 117.4 30.95 117.51 28.31 C117.79 23.46 117.79 23.46 120.01 21.24 C120.34 21.24 120.67 21.24 121.01 21.24 C121.67 18.6 122.33 15.96 123.01 13.24 C122.02 12.75 122.02 12.75 121.01 12.24 C121.67 12.24 122.33 12.24 123.01 12.24 C123.01 8.94 123.01 5.64 123.01 2.24 C129.15 0.46 134.64 -0.05 141.02 -0.03 C142.47 -0.04 142.47 -0.04 143.95 -0.05 C147.13 -0.06 150.31 -0.06 153.49 -0.06 C155.71 -0.06 157.92 -0.07 160.14 -0.07 C164.78 -0.08 169.42 -0.08 174.06 -0.07 C180.01 -0.07 185.95 -0.08 191.9 -0.11 C196.47 -0.12 201.05 -0.12 205.63 -0.12 C207.82 -0.12 210.01 -0.13 212.2 -0.14 C215.26 -0.15 218.33 -0.14 221.39 -0.13 C222.29 -0.14 223.2 -0.14 224.13 -0.15 C228.88 -0.11 232.18 0.08 236.01 3.24 C236.82 5.43 236.82 5.43 237.01 7.24 C237.67 7.24 238.33 7.24 239.01 7.24 C239.14 7.88 239.27 8.52 239.41 9.18 C239.59 10 239.76 10.83 239.94 11.68 C240.12 12.5 240.29 13.33 240.47 14.18 C240.81 16.22 240.81 16.22 242.01 17.24 C242.08 19.26 242.09 21.28 242.07 23.31 C242.06 24.41 242.05 25.51 242.04 26.65 C242.02 27.94 242.02 27.94 242.01 29.24 C242.67 29.24 243.33 29.24 244.01 29.24 C246.86 36.32 248.19 42.55 248.01 50.24 C248.67 50.57 249.33 50.9 250.01 51.24 C250.71 53.56 251.38 55.9 252.01 58.24 C252.34 58.57 252.67 58.9 253.01 59.24 C253.08 61.43 253.09 63.62 253.07 65.81 C253.06 67 253.05 68.2 253.04 69.43 C253.02 70.82 253.02 70.82 253.01 72.24 C253.67 72.24 254.33 72.24 255.01 72.24 C255.34 73.23 255.67 74.22 256.01 75.24 C256.01 73.92 256.01 72.6 256.01 71.24 C256.67 71.24 257.33 71.24 258.01 71.24 C258.01 68.93 258.01 66.62 258.01 64.24 C258.67 64.24 259.33 64.24 260.01 64.24 C260.67 61.6 261.33 58.96 262.01 56.24 C261.35 55.91 260.69 55.58 260.01 55.24 C261 55.24 261.99 55.24 263.01 55.24 C262.98 53.42 262.98 53.42 262.94 51.56 C262.95 48.33 263.06 45.36 264.01 42.24 C264.67 41.91 265.33 41.58 266.01 41.24 C266.73 39.26 267.41 37.26 268.01 35.24 C267.35 34.91 266.69 34.58 266.01 34.24 C266.67 34.24 267.33 34.24 268.01 34.24 C268.34 29.95 268.67 25.66 269.01 21.24 C269.67 21.24 270.33 21.24 271.01 21.24 C271.67 18.6 272.33 15.96 273.01 13.24 C272.35 12.91 271.69 12.58 271.01 12.24 C272 12.24 272.99 12.24 274.01 12.24 C273.98 11.62 273.96 10.99 273.94 10.34 C273.92 9.53 273.9 8.71 273.88 7.87 C273.86 7.06 273.84 6.24 273.81 5.41 C274.01 3.24 274.01 3.24 276.01 1.24 C280.9 0.07 285.76 0.09 290.76 0.08 C291.62 0.08 292.48 0.07 293.37 0.07 C296.19 0.05 299.02 0.05 301.85 0.04 C303.82 0.03 305.8 0.03 307.77 0.02 C311.9 0.01 316.03 0.01 320.16 0 C325.44 -0 330.73 -0.03 336.01 -0.06 C340.08 -0.07 344.16 -0.08 348.23 -0.08 C350.18 -0.08 352.12 -0.09 354.07 -0.1 C356.8 -0.12 359.53 -0.12 362.25 -0.11 C363.05 -0.12 363.85 -0.13 364.68 -0.14 C369.53 -0.11 372.74 0.67 377.01 3.24 C377.06 4.7 377.1 6.16 377.13 7.62 C377.16 8.43 377.18 9.24 377.2 10.08 C377.01 12.24 377.01 12.24 375.01 14.24 C374.84 14.92 374.68 15.6 374.51 16.31 C374.34 16.94 374.18 17.58 374.01 18.24 C373.35 18.57 372.69 18.9 372.01 19.24 C371.83 21.4 371.74 23.57 371.69 25.74 C371.38 31.74 370.29 35.15 367.07 40.1 C365.46 43.34 365.82 46.2 366.02 49.74 C366 53.81 364.81 57.61 363.01 61.24 C362.35 61.57 361.69 61.9 361.01 62.24 C360.8 64.26 360.69 66.28 360.63 68.31 C360.33 73.51 359.54 76.72 356.92 81.13 C355.33 84.8 355.41 88.66 355.28 92.61 C355.01 95.24 355.01 95.24 353.01 98.24 C352.62 100.23 352.28 102.23 352.01 104.24 C351.35 104.24 350.69 104.24 350.01 104.24 C350.06 105.31 350.06 105.31 350.11 106.4 C350.29 112.62 349.83 116.71 347.01 122.24 C346.63 123.57 346.28 124.9 346.01 126.24 C345.35 126.24 344.69 126.24 344.01 126.24 C344.04 126.98 344.08 127.72 344.11 128.47 C344.39 138.47 344.39 138.47 341.01 142.24 C340.35 142.24 339.69 142.24 339.01 142.24 C339.04 143.83 339.04 143.83 339.08 145.45 C339.1 146.84 339.11 148.23 339.13 149.62 C339.15 150.32 339.17 151.02 339.18 151.74 C339.2 153.57 339.11 155.41 339.01 157.24 C338.35 157.9 337.69 158.56 337.01 159.24 C336.84 159.92 336.68 160.6 336.51 161.31 C336.34 161.94 336.18 162.58 336.01 163.24 C335.35 163.57 334.69 163.9 334.01 164.24 C334.05 164.84 334.1 165.43 334.15 166.04 C334.46 173.19 332.79 178.7 330.01 185.24 C329.35 185.24 328.69 185.24 328.01 185.24 C328.04 186.17 328.08 187.1 328.11 188.06 C328.39 200.65 328.39 200.65 325.01 206.24 C324.35 206.57 323.69 206.9 323.01 207.24 C323.04 208.38 323.04 208.38 323.08 209.54 C323.1 210.54 323.11 211.53 323.13 212.56 C323.16 213.54 323.18 214.53 323.2 215.54 C323.01 218.24 323.01 218.24 321.01 221.24 C320.3 223.56 319.63 225.9 319.01 228.24 C318.35 228.24 317.69 228.24 317.01 228.24 C317.11 228.9 317.22 229.55 317.33 230.22 C318.13 236.01 318.07 239.1 315.01 244.24 C314.16 246.61 313.4 248.99 312.66 251.39 C312.01 253.24 312.01 253.24 311.01 254.24 C309.56 254.34 308.12 254.36 306.67 254.36 C305.27 254.37 305.27 254.37 303.84 254.37 C302.8 254.36 301.77 254.36 300.7 254.36 C299.62 254.36 298.54 254.36 297.42 254.36 C293.82 254.36 290.23 254.35 286.63 254.34 C284.14 254.34 281.65 254.34 279.17 254.34 C273.28 254.33 267.39 254.32 261.5 254.31 C254.14 254.3 246.78 254.3 239.42 254.29 C226.28 254.28 213.14 254.26 200.01 254.24 C198.63 250.24 197.65 246.5 197.07 242.31 C196.52 238.76 195.95 236.11 194.51 232.81 C192.65 228.39 192.18 224.17 191.63 219.43 C191.14 216.18 191.14 216.18 189.51 213.28 C187.32 208.85 187.14 204.45 186.63 199.58 C185.98 196.12 184.88 194.18 183.01 191.24 C182.28 188.79 182.28 188.79 181.82 186.43 C181.66 185.64 181.5 184.85 181.34 184.04 C181.23 183.44 181.12 182.85 181.01 182.24 C180.68 182.9 180.35 183.56 180.01 184.24 C179.35 184.24 178.69 184.24 178.01 184.24 C177.97 185.24 177.93 186.25 177.89 187.28 C177.29 200.4 177.29 200.4 174.01 206.24 C173.35 206.24 172.69 206.24 172.01 206.24 C172.03 207.15 172.05 208.05 172.08 208.98 C172.1 210.16 172.11 211.34 172.13 212.56 C172.16 213.73 172.18 214.9 172.2 216.11 C172.01 219.24 172.01 219.24 170.01 222.24 C169.62 224.23 169.28 226.23 169.01 228.24 C168.35 228.24 167.69 228.24 167.01 228.24 C167.03 229.01 167.05 229.78 167.08 230.58 C167.1 231.58 167.11 232.58 167.13 233.62 C167.16 234.62 167.18 235.61 167.2 236.64 C167.01 239.24 167.01 239.24 165.01 241.24 C164.45 243.06 163.95 244.9 163.51 246.74 C162.23 252.02 162.23 252.02 160.01 254.24 C158.04 254.49 158.04 254.49 155.59 254.48 C154.66 254.49 153.73 254.49 152.78 254.49 C151.25 254.48 151.25 254.48 149.68 254.47 C148.07 254.47 148.07 254.47 146.43 254.47 C142.87 254.47 139.31 254.45 135.75 254.44 C133.29 254.43 130.82 254.43 128.36 254.43 C121.87 254.42 115.37 254.4 108.88 254.38 C102.26 254.36 95.63 254.35 89.01 254.34 C76.01 254.32 63.01 254.29 50.01 254.24 C47.64 249.81 47.27 245.58 46.67 240.63 C45.93 236.86 44.52 233.76 43.01 230.24 C42.16 226.46 41.51 222.68 40.85 218.86 C40.16 215.25 40.16 215.25 38.48 212.23 C36.77 208.76 36.37 205.83 35.94 201.99 C35.64 197.07 35.64 197.07 33.01 193.24 C32.55 191.44 32.55 191.44 32.26 189.29 C32.15 188.5 32.03 187.72 31.91 186.91 C31.69 185.27 31.46 183.63 31.24 181.98 C30.54 177.28 29.5 174.33 27.01 170.24 C26.3 167.46 25.91 164.65 25.51 161.81 C24.73 156.3 23.54 152.25 21.01 147.24 C20.37 143.69 20.01 140.17 19.63 136.58 C19.21 133.26 19.21 133.26 17.54 130.8 C15.55 127.47 15.08 124.14 14.51 120.37 C13.66 114.86 12.24 110.4 10.01 105.24 C9.38 101.96 9.38 101.96 9.01 98.74 C8.5 95.01 8 92.23 6.51 88.74 C4.64 84.38 4.18 80.22 3.63 75.52 C2.92 71.79 1.5 68.73 0.01 65.24 C-0.84 61.46 -1.49 57.68 -2.15 53.86 C-2.84 50.25 -2.84 50.25 -4.52 47.22 C-6.7 42.81 -6.86 38.42 -7.37 33.58 C-7.78 30.27 -7.78 30.27 -9.46 27.84 C-11.56 24.29 -11.96 20.85 -12.56 16.81 C-13.33 11.75 -14.21 7.06 -15.99 2.24 C-10.52 0.41 -5.75 -0.04 0 0 Z M159.01 244.24 C160.01 246.24 160.01 246.24 160.01 246.24 Z " fill="#FBFBFB" transform="translate(63.992919921875,357.757080078125)"/>
<path d="M0 0 C1.13 -0 1.13 -0 2.28 -0.01 C4.79 -0.01 7.3 -0 9.81 0 C11.62 0 13.42 0 15.23 -0 C20.12 -0.01 25.02 0 29.91 0.01 C35.05 0.02 40.18 0.02 45.31 0.02 C53.93 0.02 62.55 0.03 71.17 0.04 C81.12 0.06 91.07 0.06 101.02 0.06 C111.63 0.06 122.24 0.07 132.86 0.08 C135.9 0.08 138.95 0.08 142 0.08 C146.8 0.08 151.61 0.09 156.41 0.1 C158.16 0.1 159.92 0.1 161.68 0.1 C186.73 0.1 186.73 0.1 194.99 4.19 C198.6 5.91 202.4 7.06 206.21 8.25 C206.21 8.91 206.21 9.57 206.21 10.25 C207.26 10.49 208.31 10.74 209.4 11 C213.06 12.04 215.33 13.74 218.21 16.25 C219.08 16.76 219.94 17.28 220.83 17.81 C223.05 19.15 224.4 20.42 226.21 22.25 C228.28 24.02 230.37 25.78 232.47 27.53 C234.21 29.25 234.21 29.25 235.21 32.25 C236.2 32.58 237.19 32.91 238.21 33.25 C238.88 35.25 239.54 37.25 240.21 39.25 C241.2 39.58 242.19 39.91 243.21 40.25 C243.21 41.9 243.21 43.55 243.21 45.25 C244.2 45.58 245.19 45.91 246.21 46.25 C248.64 49.89 248.37 51.96 248.21 56.25 C249.2 56.25 250.19 56.25 251.21 56.25 C251.67 57.45 251.67 57.45 252.15 58.68 C252.97 61.14 252.97 61.14 254.21 62.25 C254.44 63.93 254.62 65.62 254.77 67.31 C254.9 68.69 254.9 68.69 255.03 70.09 C255.09 70.81 255.15 71.52 255.21 72.25 C255.54 72.25 255.87 72.25 256.21 72.25 C256.21 77.53 256.21 82.81 256.21 88.25 C255.55 88.25 254.89 88.25 254.21 88.25 C254.23 88.89 254.25 89.53 254.27 90.19 C254.36 93.1 254.41 96.02 254.46 98.93 C254.49 99.94 254.53 100.95 254.56 101.99 C254.66 109.48 254.66 109.48 252.32 113.45 C250.21 115.25 250.21 115.25 248.21 115.25 C248.21 118.55 248.21 121.85 248.21 125.25 C247.55 125.25 246.89 125.25 246.21 125.25 C245.94 126.38 245.67 127.52 245.4 128.68 C245 129.86 244.61 131.04 244.21 132.25 C243.22 132.58 242.23 132.91 241.21 133.25 C240.53 134.91 239.86 136.58 239.21 138.25 C237.44 140.31 237.44 140.31 235.4 142.25 C234.68 142.94 233.96 143.63 233.22 144.34 C232.55 144.97 231.89 145.6 231.21 146.25 C230.4 147.07 229.6 147.9 228.77 148.75 C215.28 161.91 215.28 161.91 206.21 163.25 C206.21 164.9 206.21 166.55 206.21 168.25 C206.93 168.54 207.65 168.82 208.4 169.12 C211 170.16 213.6 171.21 216.21 172.25 C216.54 171.59 216.87 170.93 217.21 170.25 C217.21 170.91 217.21 171.57 217.21 172.25 C217.84 172.24 218.48 172.23 219.13 172.23 C225.72 172.16 232.3 172.12 238.89 172.08 C241.35 172.07 243.81 172.05 246.27 172.02 C249.8 171.98 253.33 171.97 256.86 171.95 C257.96 171.94 259.07 171.92 260.21 171.91 C261.23 171.91 262.25 171.91 263.3 171.91 C264.2 171.9 265.1 171.89 266.03 171.89 C266.75 172.01 267.47 172.12 268.21 172.25 C270.65 175.91 270.48 178.61 270.44 182.84 C270.44 183.61 270.44 184.38 270.44 185.18 C270.44 187.72 270.42 190.27 270.4 192.82 C270.4 194.59 270.4 196.36 270.4 198.12 C270.39 202.77 270.37 207.42 270.35 212.07 C270.33 216.82 270.32 221.57 270.31 226.31 C270.29 235.62 270.25 244.94 270.21 254.25 C256.87 254.32 243.52 254.37 230.18 254.4 C223.98 254.42 217.79 254.44 211.59 254.47 C205.61 254.51 199.64 254.52 193.66 254.53 C191.38 254.54 189.09 254.55 186.81 254.56 C183.62 254.59 180.43 254.59 177.23 254.59 C176.29 254.6 175.34 254.61 174.37 254.62 C169.38 254.6 166.35 254.29 162.21 251.25 C159.88 250.58 157.54 249.91 155.21 249.25 C153.21 247.25 153.21 247.25 152.21 245.25 C150.88 244.91 149.54 244.58 148.21 244.25 C142.87 241.23 138.48 237.64 134.21 233.25 C133.51 232.92 132.81 232.59 132.08 232.25 C130.21 231.25 130.21 231.25 128.94 229.04 C126.91 225.76 124.44 223.18 121.71 220.5 C121.22 220 120.74 219.51 120.24 219 C117.91 216.68 116.37 215.3 113.21 214.25 C112.18 212.6 111.18 210.93 110.21 209.25 C108.95 207.84 107.65 206.47 106.3 205.15 C105.56 204.41 104.82 203.67 104.05 202.91 C103.28 202.16 102.5 201.4 101.71 200.62 C100.94 199.86 100.16 199.1 99.37 198.31 C97.94 196.89 96.5 195.48 95.06 194.07 C94.45 193.47 93.84 192.87 93.21 192.25 C92.63 191.71 92.06 191.18 91.46 190.63 C90.21 189.25 90.21 189.25 90.21 187.25 C89.55 187.25 88.89 187.25 88.21 187.25 C86.58 185.75 86.58 185.75 85.21 184.25 C83.9 185.33 83.9 185.33 84.09 187.95 C84.09 189.15 84.09 190.36 84.1 191.6 C84.1 192.27 84.1 192.93 84.09 193.61 C84.1 195.82 84.1 198.02 84.11 200.22 C84.11 201.74 84.11 203.27 84.12 204.79 C84.12 208.81 84.13 212.82 84.14 216.84 C84.15 220.93 84.16 225.03 84.16 229.12 C84.17 237.17 84.19 245.21 84.21 253.25 C80.23 254.57 76.42 254.4 72.27 254.41 C71.36 254.41 70.44 254.42 69.5 254.42 C66.48 254.44 63.45 254.44 60.42 254.45 C58.33 254.46 56.23 254.46 54.13 254.47 C49.73 254.48 45.33 254.48 40.93 254.49 C35.28 254.49 29.63 254.52 23.99 254.55 C19.65 254.56 15.32 254.57 10.99 254.57 C8.9 254.57 6.82 254.58 4.74 254.59 C1.83 254.61 -1.08 254.61 -3.98 254.6 C-5.28 254.62 -5.28 254.62 -6.61 254.63 C-9 254.61 -9 254.61 -12.79 254.25 C-15.04 250.87 -15.04 249.75 -15.03 245.8 C-15.03 244.67 -15.04 243.54 -15.04 242.37 C-15.03 241.13 -15.03 239.89 -15.02 238.61 C-15.02 237.3 -15.02 235.99 -15.02 234.64 C-15.02 231.06 -15.01 227.47 -14.99 223.88 C-14.98 220.14 -14.98 216.39 -14.98 212.64 C-14.97 205.54 -14.96 198.45 -14.94 191.35 C-14.91 183.27 -14.9 175.19 -14.89 167.11 C-14.87 150.49 -14.84 133.87 -14.79 117.25 C-14.46 118.24 -14.13 119.23 -13.79 120.25 C-12.26 119.76 -12.26 119.76 -10.71 119.26 C-7.13 118.25 -3.87 117.99 -0.14 117.97 C1.16 117.96 2.45 117.95 3.79 117.93 C5.21 117.93 6.63 117.93 8.05 117.93 C9.56 117.92 11.07 117.91 12.57 117.9 C16.65 117.87 20.73 117.86 24.81 117.84 C29.08 117.83 33.35 117.8 37.62 117.77 C45.7 117.73 53.78 117.69 61.86 117.66 C71.06 117.62 80.26 117.57 89.46 117.52 C108.37 117.42 127.29 117.33 146.21 117.25 C146.54 116.26 146.87 115.27 147.21 114.25 C148.53 114.25 149.85 114.25 151.21 114.25 C151.54 113.59 151.87 112.93 152.21 112.25 C152.87 112.25 153.53 112.25 154.21 112.25 C154.54 111.59 154.87 110.93 155.21 110.25 C154.55 109.92 153.89 109.59 153.21 109.25 C153.87 108.92 154.53 108.59 155.21 108.25 C156.82 102.3 156.16 97 154.21 91.25 C153.55 90.92 152.89 90.59 152.21 90.25 C152.21 89.26 152.21 88.27 152.21 87.25 C150.56 87.25 148.91 87.25 147.21 87.25 C147.21 86.59 147.21 85.93 147.21 85.25 C146.4 85.1 145.6 84.96 144.77 84.81 C142.21 84.25 142.21 84.25 141.21 83.25 C139.21 83.14 137.21 83.1 135.2 83.09 C133.9 83.08 132.59 83.07 131.25 83.06 C129.79 83.05 128.33 83.05 126.87 83.04 C125.34 83.03 123.81 83.02 122.29 83.01 C118.13 82.98 113.97 82.96 109.81 82.94 C105.47 82.92 101.13 82.89 96.78 82.87 C88.56 82.82 80.33 82.77 72.1 82.73 C62.74 82.68 53.37 82.63 44.01 82.57 C24.74 82.46 5.48 82.35 -13.79 82.25 C-14.97 78.71 -14.92 75.52 -14.9 71.84 C-14.9 71.09 -14.9 70.34 -14.91 69.56 C-14.9 67.08 -14.9 64.59 -14.89 62.11 C-14.89 60.39 -14.89 58.67 -14.88 56.94 C-14.88 52.41 -14.87 47.88 -14.86 43.35 C-14.85 38.72 -14.84 34.1 -14.84 29.47 C-14.83 20.4 -14.81 11.32 -14.79 2.25 C-9.77 0.61 -5.3 -0.04 0 0 Z M253.21 76.25 C254.21 80.25 254.21 80.25 254.21 80.25 Z M241.21 125.25 C242.21 128.25 242.21 128.25 242.21 128.25 Z " fill="#FCFCFC" transform="translate(885.7910766601563,40.75276184082031)"/>
<path d="M0 0 C1.42 -0 2.85 -0.01 4.27 -0.01 C8.11 -0.02 11.96 -0.02 15.8 -0.01 C19.83 -0 23.86 -0.01 27.89 -0.01 C34.66 -0.02 41.42 -0.01 48.18 -0 C56 0.01 63.81 0.01 71.63 -0.01 C78.35 -0.01 85.07 -0.02 91.78 -0.01 C95.79 -0.01 99.8 -0.01 103.81 -0.01 C107.58 -0.02 111.34 -0.02 115.11 -0 C116.49 -0 117.87 -0 119.26 -0.01 C121.14 -0.01 123.03 -0 124.91 0 C125.97 0.01 127.02 0.01 128.11 0.01 C130.86 0.26 132.5 0.85 134.84 2.26 C134.84 3.25 134.84 4.24 134.84 5.26 C135.67 7.31 135.67 7.31 136.78 9.38 C137.32 10.44 137.32 10.44 137.87 11.52 C138.72 13.23 138.72 13.23 139.84 14.26 C139.92 16.79 139.94 19.29 139.91 21.82 C139.9 22.53 139.9 23.24 139.89 23.98 C139.88 25.74 139.86 27.5 139.84 29.26 C140.83 29.59 141.82 29.92 142.84 30.26 C144.73 33.13 145.08 35.5 145.22 38.88 C145.6 43.72 147.01 47.51 148.92 51.94 C150.77 56.58 150.99 61.32 150.84 66.26 C151.5 66.59 152.16 66.92 152.84 67.26 C153.44 69.07 153.44 69.07 153.91 71.26 C154.36 74.03 154.36 74.03 155.84 76.26 C155.92 78.28 155.93 80.3 155.91 82.32 C155.9 83.43 155.89 84.53 155.88 85.67 C155.86 86.95 155.86 86.95 155.84 88.26 C156.5 88.26 157.16 88.26 157.84 88.26 C161.13 95.67 162.44 101.25 160.84 109.26 C161.83 109.59 162.82 109.92 163.84 110.26 C164.97 113.26 164.97 113.26 165.84 116.26 C166.17 116.59 166.5 116.92 166.84 117.26 C166.92 119.61 166.93 121.97 166.91 124.32 C166.9 125.61 166.89 126.9 166.88 128.23 C166.86 129.73 166.86 129.73 166.84 131.26 C167.5 131.26 168.16 131.26 168.84 131.26 C171.64 135.97 172.24 139.77 172.03 145.13 C172.02 145.82 172.01 146.51 171.99 147.22 C171.96 148.9 171.9 150.58 171.84 152.26 C172.83 152.59 173.82 152.92 174.84 153.26 C177.32 157.94 177.96 160.94 177.84 166.26 C178.48 167.61 179.15 168.94 179.84 170.26 C180.22 171.65 180.58 173.04 180.91 174.45 C181.44 178.02 181.44 178.02 182.84 179.26 C182.92 181.11 182.93 182.97 182.91 184.82 C182.9 185.83 182.89 186.85 182.88 187.89 C182.86 189.06 182.86 189.06 182.84 190.26 C183.5 190.26 184.16 190.26 184.84 190.26 C185.33 191.67 185.8 193.09 186.28 194.51 C186.68 195.69 186.68 195.69 187.09 196.9 C188.26 200.57 188.86 202.98 188.59 206.88 C188.51 210.62 189.5 212.78 191.34 216.01 C194.5 221.72 194.34 226.87 193.84 233.26 C194.5 233.26 195.16 233.26 195.84 233.26 C199.05 239.39 199.8 245.36 199.84 252.26 C199.51 252.92 199.18 253.58 198.84 254.26 C166.17 254.26 133.5 254.26 99.84 254.26 C95.39 244.23 95.39 244.23 94.78 238.57 C93.84 231.28 93.84 231.28 89.84 225.26 C87.92 225.14 85.99 225.08 84.06 225.05 C82.82 225.03 81.58 225.01 80.3 224.99 C78.94 224.98 77.58 224.96 76.22 224.94 C74.83 224.92 73.45 224.9 72.06 224.88 C68.41 224.82 64.75 224.77 61.09 224.73 C57.37 224.68 53.65 224.62 49.92 224.57 C38.38 224.36 38.38 224.36 26.84 224.26 C25.85 224.26 24.86 224.26 23.84 224.26 C23.7 224.9 23.56 225.54 23.41 226.2 C22.84 228.26 22.84 228.26 21.84 229.26 C21.85 230.63 21.9 232.01 21.97 233.38 C22.02 238 20.9 241.08 18.84 245.26 C18.29 246.71 17.75 248.17 17.22 249.63 C15.84 253.26 15.84 253.26 14.84 254.26 C11.77 254.35 8.72 254.38 5.64 254.37 C4.19 254.37 4.19 254.37 2.72 254.37 C-0.49 254.37 -3.7 254.36 -6.91 254.36 C-9.13 254.35 -11.35 254.35 -13.56 254.35 C-19.41 254.35 -25.27 254.34 -31.12 254.33 C-37.08 254.32 -43.05 254.31 -49.01 254.31 C-60.73 254.3 -72.44 254.28 -84.16 254.26 C-85.15 251.78 -85.15 251.78 -86.16 249.26 C-85.67 248.85 -85.19 248.43 -84.69 248.01 C-81.79 244.71 -82.29 239.58 -81.98 235.33 C-81.8 233.3 -81.49 231.27 -81.16 229.26 C-79.67 228.27 -79.67 228.27 -78.16 227.26 C-77.9 224.67 -77.9 224.67 -78.16 222.26 C-77.5 222.26 -76.84 222.26 -76.16 222.26 C-76.17 221.68 -76.18 221.1 -76.19 220.5 C-76.24 215.96 -76.07 211.73 -75.16 207.26 C-74.5 207.26 -73.84 207.26 -73.16 207.26 C-72.5 205.28 -71.84 203.3 -71.16 201.26 C-71.82 200.93 -72.48 200.6 -73.16 200.26 C-72.5 200.26 -71.84 200.26 -71.16 200.26 C-71.1 198.89 -71.1 198.89 -71.04 197.49 C-70.98 196.3 -70.91 195.11 -70.84 193.88 C-70.78 192.7 -70.73 191.52 -70.67 190.3 C-70.5 189.29 -70.33 188.29 -70.16 187.26 C-68.67 186.27 -68.67 186.27 -67.16 185.26 C-66.43 182.7 -66.43 182.7 -66.16 180.26 C-66.82 179.93 -67.48 179.6 -68.16 179.26 C-67.5 178.93 -66.84 178.6 -66.16 178.26 C-65.54 175.48 -65.54 175.48 -65.16 172.26 C-64.72 168.95 -64.72 168.95 -64.16 166.26 C-63.5 165.93 -62.84 165.6 -62.16 165.26 C-61.42 162.94 -60.75 160.61 -60.16 158.26 C-60.82 157.93 -61.48 157.6 -62.16 157.26 C-61.5 157.26 -60.84 157.26 -60.16 157.26 C-59.83 152.64 -59.5 148.02 -59.16 143.26 C-58.5 143.92 -57.84 144.58 -57.16 145.26 C-56.5 142.62 -55.84 139.98 -55.16 137.26 C-55.82 136.93 -56.48 136.6 -57.16 136.26 C-56.5 136.26 -55.84 136.26 -55.16 136.26 C-54.83 132.63 -54.5 129 -54.16 125.26 C-53.5 125.26 -52.84 125.26 -52.16 125.26 C-51.5 123.94 -50.84 122.62 -50.16 121.26 C-51.15 120.76 -51.15 120.76 -52.16 120.26 C-51.5 120.26 -50.84 120.26 -50.16 120.26 C-49.97 118.54 -49.97 118.54 -49.79 116.79 C-49.62 115.3 -49.45 113.81 -49.28 112.32 C-49.2 111.57 -49.12 110.81 -49.04 110.03 C-48.82 108.1 -48.49 106.18 -48.16 104.26 C-47.5 103.93 -46.84 103.6 -46.16 103.26 C-46.16 101.94 -46.16 100.62 -46.16 99.26 C-45.5 98.93 -44.84 98.6 -44.16 98.26 C-43.84 95.71 -43.64 93.26 -43.53 90.7 C-43.47 89.63 -43.47 89.63 -43.41 88.54 C-43.32 86.78 -43.24 85.02 -43.16 83.26 C-42.5 83.26 -41.84 83.26 -41.16 83.26 C-40.5 81.61 -39.84 79.96 -39.16 78.26 C-40.15 77.76 -40.15 77.76 -41.16 77.26 C-40.5 77.26 -39.84 77.26 -39.16 77.26 C-39.09 76.5 -39.03 75.74 -38.97 74.96 C-38.89 73.96 -38.8 72.97 -38.72 71.95 C-38.64 70.96 -38.56 69.97 -38.47 68.96 C-38.16 66.26 -38.16 66.26 -37.16 63.26 C-36.5 62.93 -35.84 62.6 -35.16 62.26 C-34.08 58.68 -34.08 58.68 -35.16 55.26 C-34.5 55.26 -33.84 55.26 -33.16 55.26 C-33.12 54.36 -33.08 53.45 -33.04 52.52 C-32.98 51.34 -32.91 50.16 -32.84 48.95 C-32.78 47.77 -32.73 46.6 -32.67 45.4 C-32.12 42.07 -31.68 41.31 -29.16 39.26 C-28.44 37.16 -28.44 37.16 -28.16 35.26 C-29.15 34.76 -29.15 34.76 -30.16 34.26 C-29.5 34.26 -28.84 34.26 -28.16 34.26 C-28.12 33.42 -28.08 32.57 -28.04 31.7 C-27.98 30.61 -27.91 29.51 -27.84 28.38 C-27.76 26.75 -27.76 26.75 -27.67 25.08 C-27.5 24.15 -27.33 23.22 -27.16 22.26 C-26.17 21.6 -25.18 20.94 -24.16 20.26 C-23.03 16.17 -23.03 16.17 -24.16 12.26 C-23.5 12.26 -22.84 12.26 -22.16 12.26 C-22.16 8.96 -22.16 5.66 -22.16 2.26 C-14.79 -0.07 -7.67 -0.02 0 0 Z M56.84 97.26 C55.85 97.59 54.86 97.92 53.84 98.26 C53.8 99.39 53.75 100.52 53.7 101.69 C53.62 103.17 53.55 104.65 53.47 106.13 C53.42 107.25 53.42 107.25 53.38 108.4 C53.07 114.03 53.07 114.03 50.84 116.26 C50.84 117.58 50.84 118.9 50.84 120.26 C50.18 120.26 49.52 120.26 48.84 120.26 C48.18 124.75 48.18 124.75 47.63 129.26 C47.13 133.79 46.2 137.91 44.84 142.26 C44.18 142.26 43.52 142.26 42.84 142.26 C42.82 144.22 42.8 146.18 42.78 148.13 C42.77 149.22 42.76 150.31 42.75 151.44 C42.65 154.21 42.65 154.21 43.84 156.26 C53.74 156.26 63.64 156.26 73.84 156.26 C74.09 149.43 74.09 149.43 70.84 145.26 C70.1 142.32 69.74 139.33 69.34 136.32 C68.62 130.8 67.81 127.04 64.84 122.26 C64.25 118.99 64.25 118.99 63.91 115.45 C62.99 108.08 60.95 103.42 56.84 97.26 Z M33.84 222.26 C33.84 222.59 33.84 222.92 33.84 223.26 C52.32 223.26 70.8 223.26 89.84 223.26 C89.84 222.93 89.84 222.6 89.84 222.26 C71.36 222.26 52.88 222.26 33.84 222.26 Z M13.84 244.26 C14.84 246.26 14.84 246.26 14.84 246.26 Z " fill="#FBFBFB" transform="translate(661.1552734375,40.7412109375)"/>
<path d="M0 0 C1.22 -0 2.45 -0.01 3.71 -0.01 C5.05 -0.01 6.39 -0.01 7.74 -0.01 C9.16 -0.01 10.59 -0.02 12.01 -0.02 C15.87 -0.03 19.73 -0.03 23.58 -0.03 C25.99 -0.03 28.4 -0.04 30.81 -0.04 C39.22 -0.05 47.63 -0.05 56.03 -0.05 C63.87 -0.05 71.71 -0.06 79.55 -0.08 C86.28 -0.09 93.01 -0.1 99.75 -0.1 C103.77 -0.09 107.79 -0.1 111.81 -0.11 C115.58 -0.12 119.36 -0.12 123.14 -0.11 C124.52 -0.11 125.91 -0.11 127.3 -0.12 C129.19 -0.13 131.08 -0.12 132.97 -0.11 C134.56 -0.11 134.56 -0.11 136.18 -0.12 C138.79 0.13 138.79 0.13 141.79 2.13 C143.15 4.7 143.15 4.7 144.42 7.7 C145.72 11.17 145.72 11.17 147.79 14.13 C147.87 16.66 147.89 19.17 147.86 21.7 C147.85 22.41 147.85 23.12 147.84 23.85 C147.83 25.61 147.81 27.37 147.79 29.13 C148.45 29.13 149.11 29.13 149.79 29.13 C152.4 32.26 152.97 34.88 153.23 38.82 C153.57 43.67 154.96 47.45 156.87 51.88 C158.8 56.58 158.91 61.12 158.79 66.13 C159.45 66.46 160.11 66.79 160.79 67.13 C161.39 68.95 161.39 68.95 161.86 71.13 C162.31 73.9 162.31 73.9 163.79 76.13 C163.87 78.15 163.88 80.18 163.86 82.2 C163.85 83.3 163.84 84.41 163.83 85.54 C163.81 86.83 163.81 86.83 163.79 88.13 C164.45 88.13 165.11 88.13 165.79 88.13 C168.58 94.31 169.23 99.71 169.49 106.47 C169.64 107.79 169.64 107.79 169.79 109.13 C170.45 109.46 171.11 109.79 171.79 110.13 C174.86 116.97 175.17 123.76 174.79 131.13 C175.45 131.13 176.11 131.13 176.79 131.13 C177.1 131.94 177.41 132.74 177.73 133.57 C178.56 136.02 178.56 136.02 179.79 137.13 C179.87 139.66 179.89 142.17 179.86 144.7 C179.85 145.41 179.85 146.12 179.84 146.85 C179.83 148.61 179.81 150.37 179.79 152.13 C180.78 152.46 181.77 152.79 182.79 153.13 C183.92 155.57 183.92 155.57 184.79 158.13 C185.12 158.79 185.45 159.45 185.79 160.13 C185.77 161.25 185.75 162.36 185.73 163.51 C185.79 167.09 186.12 168.16 187.79 171.13 C188.47 173.47 189.13 175.8 189.79 178.13 C190.12 178.46 190.45 178.79 190.79 179.13 C190.87 180.99 190.88 182.84 190.86 184.7 C190.85 185.71 190.84 186.72 190.83 187.76 C190.81 188.94 190.81 188.94 190.79 190.13 C191.45 190.13 192.11 190.13 192.79 190.13 C193.27 191.55 193.75 192.97 194.23 194.38 C194.63 195.57 194.63 195.57 195.04 196.77 C196.2 200.41 196.82 202.83 196.54 206.7 C196.46 210.56 197.55 213.02 199.29 216.45 C202.12 222.13 202.34 226.88 201.79 233.13 C202.45 233.13 203.11 233.13 203.79 233.13 C205.04 236.59 206.1 240.07 206.98 243.63 C207.16 244.35 207.34 245.06 207.52 245.79 C207.79 248.13 207.79 248.13 206.79 254.13 C174.12 254.13 141.45 254.13 107.79 254.13 C107.46 253.14 107.13 252.15 106.79 251.13 C106.13 251.13 105.47 251.13 104.79 251.13 C104.68 250.23 104.57 249.32 104.46 248.39 C102.94 236.15 102.94 236.15 97.79 225.13 C95.1 224.66 95.1 224.66 91.89 224.7 C90.03 224.67 90.03 224.67 88.14 224.64 C86.78 224.63 85.43 224.63 84.07 224.62 C82.69 224.61 81.3 224.59 79.92 224.57 C76.27 224.52 72.62 224.49 68.97 224.46 C65.26 224.43 61.54 224.39 57.82 224.34 C44.59 223.38 44.59 223.38 31.79 225.13 C31.46 226.12 31.13 227.11 30.79 228.13 C30.13 228.13 29.47 228.13 28.79 228.13 C28.95 228.99 28.95 228.99 29.12 229.86 C30.01 235.62 29.46 238.8 26.79 244.13 C25.96 246.51 25.2 248.91 24.44 251.31 C23.79 253.13 23.79 253.13 22.79 254.13 C19.73 254.24 16.69 254.28 13.62 254.28 C12.18 254.28 12.18 254.28 10.71 254.29 C7.51 254.3 4.31 254.3 1.11 254.3 C-1.1 254.3 -3.32 254.31 -5.53 254.31 C-10.18 254.32 -14.82 254.32 -19.47 254.32 C-25.44 254.32 -31.4 254.33 -37.37 254.35 C-41.94 254.36 -46.52 254.36 -51.09 254.36 C-53.29 254.36 -55.49 254.37 -57.69 254.38 C-60.76 254.39 -63.83 254.38 -66.91 254.38 C-67.82 254.38 -68.74 254.39 -69.69 254.39 C-75.98 254.36 -75.98 254.36 -78.21 252.13 C-78.21 251.14 -78.21 250.15 -78.21 249.13 C-77.48 248.42 -77.48 248.42 -76.75 247.69 C-73.76 244.67 -74.33 239.31 -74.03 235.21 C-73.85 233.17 -73.54 231.15 -73.21 229.13 C-71.72 228.14 -71.72 228.14 -70.21 227.13 C-69.48 225.07 -69.48 225.07 -69.21 223.13 C-69.87 222.8 -70.53 222.47 -71.21 222.13 C-70.55 221.8 -69.89 221.47 -69.21 221.13 C-68.59 217.59 -68.24 214.03 -67.87 210.45 C-67.19 207.04 -66.77 206.26 -64.21 204.13 C-63.88 203.14 -63.55 202.15 -63.21 201.13 C-63.87 200.8 -64.53 200.47 -65.21 200.13 C-64.55 200.13 -63.89 200.13 -63.21 200.13 C-63.17 199.23 -63.13 198.33 -63.09 197.4 C-62.99 195.63 -62.99 195.63 -62.89 193.82 C-62.84 192.65 -62.78 191.48 -62.72 190.27 C-62.18 186.95 -61.73 186.18 -59.21 184.13 C-58.49 182.03 -58.49 182.03 -58.21 180.13 C-58.87 179.8 -59.53 179.47 -60.21 179.13 C-59.55 179.13 -58.89 179.13 -58.21 179.13 C-58.16 178.37 -58.11 177.62 -58.06 176.83 C-57.98 175.84 -57.91 174.85 -57.83 173.82 C-57.76 172.84 -57.69 171.85 -57.62 170.83 C-57.21 168.13 -57.21 168.13 -55.21 165.13 C-53.96 162.8 -53.05 160.66 -52.21 158.13 C-52.87 157.8 -53.53 157.47 -54.21 157.13 C-53.55 157.13 -52.89 157.13 -52.21 157.13 C-52.16 156.35 -52.11 155.57 -52.06 154.76 C-51.95 153.24 -51.95 153.24 -51.83 151.7 C-51.76 150.69 -51.69 149.68 -51.62 148.64 C-51.48 147.81 -51.35 146.99 -51.21 146.13 C-50.55 145.8 -49.89 145.47 -49.21 145.13 C-48.55 142.56 -48.55 142.56 -48.14 139.51 C-47.98 138.43 -47.82 137.35 -47.65 136.24 C-47.5 135.21 -47.36 134.19 -47.21 133.13 C-47.09 132.36 -46.98 131.58 -46.86 130.78 C-46.63 129.23 -46.42 127.68 -46.21 126.13 C-45.55 126.13 -44.89 126.13 -44.21 126.13 C-43.55 124.48 -42.89 122.83 -42.21 121.13 C-43.2 120.64 -43.2 120.64 -44.21 120.13 C-43.55 120.13 -42.89 120.13 -42.21 120.13 C-42.08 119.07 -41.96 118.01 -41.84 116.92 C-41.67 115.53 -41.5 114.15 -41.33 112.76 C-41.25 112.06 -41.17 111.36 -41.09 110.64 C-40.43 105.36 -40.43 105.36 -38.21 103.13 C-38.04 100.55 -38.04 100.55 -38.21 98.13 C-37.55 98.13 -36.89 98.13 -36.21 98.13 C-36.23 96.96 -36.25 95.78 -36.27 94.57 C-36.28 90.66 -35.85 86.99 -35.21 83.13 C-34.55 83.13 -33.89 83.13 -33.21 83.13 C-32.55 81.48 -31.89 79.83 -31.21 78.13 C-32.2 77.64 -32.2 77.64 -33.21 77.13 C-32.55 77.13 -31.89 77.13 -31.21 77.13 C-30.88 72.51 -30.55 67.89 -30.21 63.13 C-29.55 63.13 -28.89 63.13 -28.21 63.13 C-28.02 61.43 -28.02 61.43 -27.83 59.7 C-27.62 58.52 -27.42 57.34 -27.21 56.13 C-26.55 55.8 -25.89 55.47 -25.21 55.13 C-24.81 52.12 -24.81 52.12 -24.71 48.63 C-24.55 45.04 -24.55 45.04 -24.21 42.13 C-23.55 41.8 -22.89 41.47 -22.21 41.13 C-21.48 39.15 -20.81 37.15 -20.21 35.13 C-21.2 34.64 -21.2 34.64 -22.21 34.13 C-21.55 34.13 -20.89 34.13 -20.21 34.13 C-20.17 33.3 -20.13 32.47 -20.09 31.61 C-20.03 30.53 -19.96 29.44 -19.89 28.32 C-19.81 26.7 -19.81 26.7 -19.72 25.05 C-19.16 21.85 -18.56 21.2 -16.21 19.13 C-15.48 16.03 -15.48 16.03 -15.21 13.13 C-15.87 12.8 -16.53 12.47 -17.21 12.13 C-16.22 12.13 -15.23 12.13 -14.21 12.13 C-14.23 11.51 -14.25 10.88 -14.28 10.24 C-14.29 9.42 -14.31 8.6 -14.33 7.76 C-14.35 6.95 -14.38 6.13 -14.4 5.3 C-14.21 3.13 -14.21 3.13 -12.21 1.13 C-8.12 0.21 -4.18 0.01 0 0 Z M62.17 98.19 C60.08 101.14 60.58 103.64 60.73 107.2 C60.82 109.51 60.86 111.82 60.79 114.13 C60.13 114.79 59.47 115.45 58.79 116.13 C58.79 117.45 58.79 118.77 58.79 120.13 C58.13 120.13 57.47 120.13 56.79 120.13 C55.62 122.48 55.78 123.66 55.92 126.26 C56 131.19 54.67 134.61 52.79 139.13 C52.79 140.12 52.79 141.11 52.79 142.13 C52.13 142.13 51.47 142.13 50.79 142.13 C50.77 144.09 50.75 146.05 50.73 148.01 C50.72 149.1 50.71 150.19 50.7 151.31 C50.6 154.09 50.6 154.09 51.79 156.13 C61.69 156.13 71.59 156.13 81.79 156.13 C82.31 150.54 82.31 150.54 80.4 147.84 C78.13 144.01 77.74 140.19 77.11 135.82 C76.98 134.99 76.85 134.15 76.71 133.29 C76.4 131.24 76.09 129.19 75.79 127.13 C75.13 127.13 74.47 127.13 73.79 127.13 C73.61 125.84 73.43 124.55 73.24 123.22 C72.99 121.51 72.74 119.79 72.48 118.07 C72.36 117.22 72.25 116.38 72.12 115.5 C71.1 108.69 68.97 103.25 65.79 97.13 C63.75 96.95 63.75 96.95 62.17 98.19 Z M39.79 222.13 C39.79 222.46 39.79 222.79 39.79 223.13 C58.93 223.13 78.07 223.13 97.79 223.13 C97.79 222.8 97.79 222.47 97.79 222.13 C78.65 222.13 59.51 222.13 39.79 222.13 Z " fill="#FBFBFB" transform="translate(481.2061004638672,357.8662872314453)"/>
<path d="M0 0 C1.09 0 2.18 0 3.3 0 C4.56 -0 5.81 -0.01 7.11 -0.01 C8.51 -0.01 9.92 -0 11.32 0 C12.81 0 14.29 -0 15.77 -0.01 C19.86 -0.01 23.96 -0.01 28.05 0 C32.46 0.01 36.86 0 41.27 0 C49.92 -0 58.57 0 67.21 0.01 C77.3 0.02 87.38 0.02 97.46 0.02 C115.47 0.02 133.47 0.03 151.48 0.04 C168.92 0.06 186.37 0.06 203.81 0.06 C205.42 0.06 205.42 0.06 207.06 0.06 C208.13 0.06 209.19 0.06 210.3 0.06 C230.17 0.06 250.05 0.07 269.93 0.08 C276.94 0.08 283.95 0.08 290.96 0.08 C299.53 0.08 308.1 0.09 316.67 0.1 C321.04 0.1 325.4 0.1 329.77 0.1 C347.35 0.1 364.89 0.19 382.45 1.25 C382.78 2.24 383.11 3.23 383.45 4.25 C334.74 4.3 286.04 4.33 237.33 4.35 C231.58 4.35 225.84 4.36 220.09 4.36 C218.94 4.36 217.8 4.36 216.62 4.36 C198.08 4.37 179.54 4.39 161 4.4 C141.99 4.42 122.97 4.43 103.96 4.44 C92.22 4.44 80.48 4.45 68.74 4.47 C60.7 4.48 52.66 4.48 44.61 4.48 C39.97 4.48 35.32 4.48 30.68 4.49 C26.43 4.5 22.18 4.5 17.93 4.49 C16.39 4.49 14.85 4.49 13.31 4.5 C11.22 4.51 9.13 4.5 7.05 4.5 C5.88 4.5 4.72 4.5 3.53 4.5 C0.44 4.25 -1.77 3.56 -4.55 2.25 C-2.55 0.25 -2.55 0.25 0 0 Z " fill="#E3E2E0" transform="translate(209.5506489276886,49.7504523396492)"/>
<path d="M0 0 C1.53 -0 3.07 -0 4.6 -0.01 C8.78 -0.01 12.95 -0 17.12 0.01 C21.64 0.02 26.16 0.01 30.68 0.01 C38.49 0.01 46.3 0.02 54.11 0.03 C65.4 0.05 76.7 0.05 87.99 0.05 C106.32 0.06 124.65 0.07 142.97 0.09 C160.77 0.11 178.56 0.12 196.36 0.13 C198.01 0.13 198.01 0.13 199.69 0.13 C205.2 0.13 210.71 0.14 216.22 0.14 C261.87 0.16 307.53 0.2 353.19 0.24 C353.19 0.9 353.19 1.56 353.19 2.24 C354.18 2.57 355.17 2.9 356.19 3.24 C165.12 3.74 165.12 3.74 -29.81 4.24 C-30.14 3.58 -30.47 2.92 -30.81 2.24 C-20.48 0.61 -10.47 -0.05 0 0 Z " fill="#9F9E9E" transform="translate(241.81248474121094,40.759490966796875)"/>
<path d="M0 0 C1.18 -0 2.35 -0.01 3.56 -0.01 C5.51 -0.01 5.51 -0.01 7.49 -0 C8.87 -0 10.24 -0.01 11.62 -0.01 C15.36 -0.01 19.11 -0.01 22.86 -0.01 C26.8 -0 30.73 -0.01 34.67 -0.01 C41.3 -0.01 47.93 -0.01 54.57 -0 C62.18 0 69.8 0 77.41 -0.01 C83.98 -0.01 90.54 -0.01 97.11 -0.01 C101.01 -0.01 104.92 -0.01 108.83 -0.01 C136.66 -0.03 136.66 -0.03 149.86 0.45 C150.71 0.47 151.56 0.49 152.44 0.51 C158.07 0.77 158.07 0.77 160.2 2.66 C160.83 3.39 160.83 3.39 161.47 4.13 C140.03 4.2 118.58 4.25 97.14 4.28 C87.18 4.3 77.23 4.32 67.27 4.35 C58.59 4.38 49.92 4.4 41.24 4.41 C36.64 4.41 32.05 4.42 27.45 4.44 C23.13 4.46 18.8 4.47 14.48 4.47 C12.89 4.47 11.3 4.47 9.72 4.48 C7.55 4.5 5.38 4.5 3.22 4.49 C2 4.49 0.79 4.49 -0.46 4.5 C-3.76 4.1 -5.13 3.37 -7.53 1.13 C-4.9 -0.19 -2.95 0 0 0 Z " fill="#E3E2E0" transform="translate(1062.5280303955078,366.8730163574219)"/>
<path d="M0 0 C0.75 -0 1.49 -0 2.26 -0.01 C4.75 -0.01 7.24 -0.01 9.73 -0.01 C11.52 -0.01 13.31 -0.02 15.1 -0.02 C19.95 -0.03 24.81 -0.03 29.66 -0.03 C32.7 -0.03 35.74 -0.04 38.78 -0.04 C49.4 -0.05 60.02 -0.05 70.64 -0.05 C80.51 -0.05 90.38 -0.06 100.25 -0.08 C108.74 -0.09 117.23 -0.1 125.72 -0.1 C130.79 -0.09 135.85 -0.1 140.92 -0.11 C145.69 -0.12 150.46 -0.12 155.23 -0.11 C156.97 -0.11 158.71 -0.11 160.45 -0.12 C170.95 -0.15 181.02 0.44 191.39 2.13 C191.39 2.46 191.39 2.79 191.39 3.13 C124.07 3.13 56.75 3.13 -12.61 3.13 C-12.94 2.47 -13.27 1.81 -13.61 1.13 C-9.04 0.25 -4.63 -0.01 0 0 Z " fill="#9C9B9A" transform="translate(713.6059417724609,357.8662872314453)"/>
<path d="M0 0 C1.13 -0 1.13 -0 2.29 -0 C4.81 -0.01 7.33 -0.01 9.85 -0 C11.67 -0 13.48 -0.01 15.29 -0.01 C20.21 -0.01 25.12 -0.01 30.04 -0.01 C35.18 -0 40.33 -0.01 45.48 -0.01 C54.12 -0.01 62.77 -0.01 71.41 -0 C81.4 0 91.39 0 101.38 -0.01 C109.96 -0.01 118.54 -0.01 127.12 -0.01 C132.24 -0.01 137.36 -0.01 142.48 -0.01 C147.3 -0.01 152.12 -0.01 156.94 -0 C158.7 -0 160.47 -0 162.23 -0.01 C164.65 -0.01 167.06 -0 169.48 0 C170.17 -0 170.87 -0 171.58 -0.01 C175.93 0.01 180.03 0.43 184.3 1.13 C184.3 1.79 184.3 2.45 184.3 3.13 C119.29 3.13 54.28 3.13 -12.7 3.13 C-13.03 2.47 -13.36 1.81 -13.7 1.13 C-9.1 0.23 -4.67 -0.01 0 0 Z " fill="#9B9B9A" transform="translate(885.6977386474609,40.873016357421875)"/>
<path d="M0 0 C1.1 -0 1.1 -0 2.21 -0 C4.68 -0.01 7.14 -0.01 9.61 -0 C11.37 -0 13.13 -0.01 14.89 -0.01 C19.69 -0.01 24.49 -0.01 29.29 -0.01 C34.32 -0 39.34 -0.01 44.37 -0.01 C52.83 -0.01 61.28 -0.01 69.74 -0 C79.49 0 89.24 0 98.99 -0.01 C107.37 -0.01 115.75 -0.01 124.13 -0.01 C129.13 -0.01 134.13 -0.01 139.13 -0.01 C143.85 -0.01 148.56 -0.01 153.28 -0 C155 -0 156.72 -0 158.44 -0.01 C168.38 -0.02 178.19 0.25 188.1 1.13 C188.1 1.79 188.1 2.45 188.1 3.13 C162.99 3.17 137.88 3.21 112.77 3.23 C101.11 3.24 89.45 3.26 77.79 3.28 C67.63 3.3 57.47 3.31 47.31 3.32 C41.93 3.32 36.54 3.32 31.16 3.34 C26.1 3.35 21.04 3.36 15.98 3.35 C14.12 3.35 12.25 3.36 10.39 3.37 C7.86 3.38 5.32 3.37 2.79 3.37 C1.68 3.38 1.68 3.38 0.54 3.39 C-3.16 3.36 -4.73 3.24 -7.9 1.13 C-5.99 -0.79 -2.53 0 0 0 Z " fill="#E4E3E1" transform="translate(895.8975067138672,50.873016357421875)"/>
<path d="M0 0 C0.73 -0 1.45 -0 2.2 -0 C4.65 -0.01 7.1 -0.01 9.55 -0 C11.3 -0 13.05 -0.01 14.8 -0.01 C19.57 -0.01 24.34 -0.01 29.11 -0.01 C34.1 -0 39.1 -0.01 44.1 -0.01 C52.5 -0.01 60.9 -0.01 69.31 -0 C79 0 88.69 0 98.37 -0.01 C106.7 -0.01 115.03 -0.01 123.36 -0.01 C128.33 -0.01 133.3 -0.01 138.27 -0.01 C142.95 -0.01 147.64 -0.01 152.32 -0 C154.03 -0 155.74 -0 157.45 -0.01 C167.36 -0.02 177.14 0.26 187.02 1.13 C187.02 1.79 187.02 2.45 187.02 3.13 C162.06 3.17 137.09 3.21 112.13 3.23 C100.54 3.24 88.94 3.26 77.35 3.28 C67.25 3.3 57.15 3.31 47.05 3.32 C41.7 3.32 36.35 3.32 31 3.34 C25.97 3.35 20.93 3.36 15.9 3.35 C14.05 3.35 12.2 3.36 10.35 3.37 C7.83 3.38 5.31 3.37 2.79 3.37 C1.69 3.38 1.69 3.38 0.56 3.39 C-3.12 3.36 -5.85 3.16 -8.98 1.13 C-6 -0.36 -3.32 0 0 0 Z " fill="#E4E3E1" transform="translate(724.9797973632813,367.8730163574219)"/>
<path d="M0 0 C28.71 0.33 57.42 0.66 87 1 C87 1.33 87 1.66 87 2 C59.28 2 31.56 2 3 2 C3 57.44 3 112.88 3 170 C2.67 170 2.34 170 2 170 C2 165.71 2 161.42 2 157 C1.34 157 0.68 157 0 157 C0 105.19 0 53.38 0 0 Z " fill="#000000" transform="translate(510,123)"/>
<path d="M0 0 C15.64 -0.02 31.28 -0.04 46.92 -0.05 C54.18 -0.06 61.45 -0.06 68.71 -0.08 C75.06 -0.09 81.4 -0.09 87.74 -0.09 C91.09 -0.1 94.44 -0.1 97.79 -0.11 C113.89 -0.14 129.92 0.12 146 1 C146 1.66 146 2.32 146 3 C142.89 4.04 140.74 4.13 137.48 4.14 C136.33 4.15 135.18 4.15 134 4.16 C132.74 4.16 131.48 4.16 130.18 4.16 C128.84 4.17 127.5 4.17 126.16 4.18 C122.51 4.19 118.87 4.2 115.23 4.2 C112.95 4.2 110.68 4.21 108.4 4.21 C101.28 4.23 94.15 4.24 87.03 4.24 C78.81 4.24 70.59 4.26 62.37 4.29 C56.01 4.31 49.66 4.32 43.3 4.32 C39.5 4.32 35.71 4.33 31.91 4.35 C28.34 4.36 24.77 4.37 21.2 4.36 C19.27 4.36 17.34 4.37 15.41 4.38 C4.91 4.33 4.91 4.33 0 1 C0 0.67 0 0.34 0 0 Z " fill="#E3E2E0" transform="translate(475,367)"/>
<path d="M0 0 C1.45 -0 2.91 -0.01 4.36 -0.02 C8.28 -0.03 12.19 -0.03 16.11 -0.04 C18.56 -0.04 21.01 -0.05 23.46 -0.05 C31.13 -0.06 38.8 -0.07 46.47 -0.08 C55.32 -0.08 64.16 -0.1 73 -0.13 C79.86 -0.15 86.71 -0.16 93.56 -0.16 C97.64 -0.16 101.73 -0.17 105.82 -0.19 C109.65 -0.2 113.49 -0.21 117.33 -0.2 C118.73 -0.2 120.14 -0.2 121.55 -0.21 C123.47 -0.22 125.39 -0.22 127.31 -0.21 C128.38 -0.21 129.46 -0.21 130.57 -0.21 C133.34 0.16 133.34 0.16 137.34 3.16 C83.88 3.16 30.42 3.16 -24.66 3.16 C-24.66 2.5 -24.66 1.84 -24.66 1.16 C-16.44 0.11 -8.28 0.01 0 0 Z " fill="#9D9D9C" transform="translate(1090.65771484375,357.8388671875)"/>
<path d="M0 0 C1.83 -0.01 1.83 -0.01 3.7 -0.01 C5.04 -0.01 6.39 -0.01 7.74 -0.01 C9.16 -0.01 10.59 -0.02 12.01 -0.02 C15.87 -0.03 19.73 -0.03 23.59 -0.03 C26.82 -0.03 30.04 -0.04 33.26 -0.04 C40.87 -0.05 48.47 -0.05 56.07 -0.05 C63.92 -0.05 71.77 -0.06 79.61 -0.08 C86.35 -0.09 93.08 -0.1 99.82 -0.1 C103.84 -0.09 107.86 -0.1 111.89 -0.11 C115.67 -0.12 119.45 -0.12 123.23 -0.11 C124.62 -0.11 126.01 -0.11 127.4 -0.12 C129.29 -0.13 131.19 -0.12 133.08 -0.11 C134.67 -0.11 134.67 -0.11 136.3 -0.12 C139.05 0.13 140.7 0.71 143.04 2.13 C139.78 3.22 137.42 3.26 133.99 3.25 C132.72 3.26 131.45 3.26 130.15 3.26 C128.74 3.25 127.34 3.25 125.93 3.25 C124.45 3.25 122.97 3.25 121.5 3.25 C117.48 3.25 113.46 3.24 109.45 3.24 C105.25 3.23 101.06 3.23 96.86 3.23 C88.91 3.22 80.96 3.22 73.02 3.21 C63.97 3.19 54.92 3.19 45.88 3.18 C27.26 3.17 8.65 3.16 -9.96 3.13 C-9.96 2.47 -9.96 1.81 -9.96 1.13 C-6.59 0.12 -3.51 0.01 0 0 Z " fill="#9E9E9D" transform="translate(652.9588623046875,40.86628723144531)"/>
<path d="M0 0 C1.22 -0 2.45 -0.01 3.71 -0.01 C5.05 -0.01 6.39 -0.01 7.74 -0.01 C9.16 -0.01 10.59 -0.02 12.01 -0.02 C15.87 -0.03 19.73 -0.03 23.58 -0.03 C25.99 -0.03 28.4 -0.04 30.81 -0.04 C39.22 -0.05 47.63 -0.05 56.03 -0.05 C63.87 -0.05 71.71 -0.06 79.55 -0.08 C86.28 -0.09 93.01 -0.1 99.75 -0.1 C103.77 -0.09 107.79 -0.1 111.81 -0.11 C115.58 -0.12 119.36 -0.12 123.14 -0.11 C124.52 -0.11 125.91 -0.11 127.3 -0.12 C129.19 -0.13 131.08 -0.12 132.97 -0.11 C134.56 -0.11 134.56 -0.11 136.18 -0.12 C138.79 0.13 138.79 0.13 141.79 2.13 C134 3.2 126.32 3.27 118.46 3.25 C117.03 3.25 115.6 3.25 114.17 3.25 C110.32 3.25 106.46 3.24 102.6 3.24 C98.56 3.23 94.52 3.23 90.48 3.23 C82.84 3.22 75.2 3.22 67.57 3.21 C58.86 3.19 50.16 3.19 41.46 3.18 C23.57 3.17 5.68 3.16 -12.21 3.13 C-12.21 2.47 -12.21 1.81 -12.21 1.13 C-8.08 0.36 -4.19 0.01 0 0 Z " fill="#9C9C9B" transform="translate(481.2061004638672,357.8662872314453)"/>
<path d="M0 0 C15.77 -0.02 31.54 -0.04 47.31 -0.05 C54.64 -0.06 61.96 -0.06 69.29 -0.08 C75.68 -0.09 82.08 -0.09 88.48 -0.09 C91.85 -0.1 95.23 -0.1 98.6 -0.11 C114.76 -0.14 130.86 0.11 147 1 C146.34 1.99 145.68 2.98 145 4 C139.95 4 134.91 3.95 129.86 3.92 C129.18 3.92 128.51 3.92 127.81 3.91 C114.47 3.83 101.13 3.75 87.79 3.66 C79.29 3.61 70.78 3.55 62.28 3.5 C54.87 3.46 47.45 3.41 40.04 3.36 C36.11 3.34 32.19 3.31 28.26 3.29 C24.57 3.27 20.88 3.25 17.19 3.22 C15.19 3.21 13.18 3.2 11.17 3.19 C9.99 3.18 8.8 3.17 7.58 3.16 C6.54 3.15 5.51 3.15 4.44 3.14 C2 3 2 3 0 2 C0 1.34 0 0.68 0 0 Z " fill="#E3E2E0" transform="translate(647,50)"/>
<path d="M0 0 C0.98 -0 1.95 -0 2.96 -0 C6.16 0 9.37 0.02 12.57 0.03 C14.8 0.04 17.03 0.04 19.26 0.04 C25.11 0.05 30.97 0.07 36.82 0.09 C42.8 0.11 48.78 0.12 54.76 0.13 C66.47 0.15 78.19 0.18 89.91 0.23 C90.41 1.22 90.41 1.22 90.91 2.23 C85.51 3.34 80.26 3.4 74.78 3.43 C73.77 3.44 72.76 3.45 71.73 3.46 C68.42 3.49 65.11 3.52 61.79 3.54 C59.49 3.56 57.19 3.59 54.89 3.61 C48.85 3.66 42.8 3.71 36.75 3.76 C30.58 3.81 24.41 3.87 18.23 3.92 C6.13 4.03 -5.98 4.13 -18.09 4.23 C-18.09 3.57 -18.09 2.91 -18.09 2.23 C-11.91 0.42 -6.41 -0.05 0 0 Z " fill="#9D9D9C" transform="translate(205.087890625,357.77294921875)"/>
<path d="M0 0 C10.32 0.11 20.64 0.22 30.96 0.34 C35.75 0.39 40.54 0.45 45.34 0.5 C49.97 0.55 54.61 0.6 59.24 0.65 C61 0.67 62.76 0.69 64.52 0.71 C92.98 0.99 92.98 0.99 97 3 C97 2.34 97 1.68 97 1 C98.65 1 100.3 1 102 1 C101.34 1.99 100.68 2.98 100 4 C96.88 4.29 93.95 4.39 90.82 4.36 C89.4 4.36 89.4 4.36 87.94 4.36 C84.79 4.37 81.63 4.35 78.47 4.33 C76.29 4.33 74.1 4.32 71.91 4.32 C67.32 4.32 62.73 4.3 58.14 4.28 C52.25 4.25 46.37 4.24 40.48 4.24 C35.96 4.23 31.44 4.22 26.92 4.21 C24.75 4.21 22.58 4.2 20.41 4.2 C17.37 4.19 14.34 4.18 11.3 4.16 C10.4 4.16 9.5 4.16 8.57 4.16 C7.33 4.15 7.33 4.15 6.07 4.14 C4.99 4.14 4.99 4.14 3.89 4.13 C2 4 2 4 -1 3 C-0.67 2.01 -0.34 1.02 0 0 Z " fill="#E2E1DF" transform="translate(197,367)"/>
<path d="M0 0 C1.3 -0 1.3 -0 2.63 -0 C5.49 0 8.35 0.01 11.2 0.02 C13.19 0.02 15.18 0.02 17.16 0.02 C22.38 0.02 27.6 0.03 32.82 0.04 C38.15 0.06 43.48 0.06 48.81 0.06 C59.25 0.08 69.7 0.09 80.15 0.11 C80.64 1.1 80.64 1.1 81.15 2.11 C71.16 3.43 61.19 3.24 51.14 3.21 C49.2 3.21 47.27 3.21 45.33 3.21 C40.27 3.2 35.2 3.19 30.13 3.18 C24.95 3.17 19.77 3.17 14.59 3.16 C4.44 3.15 -5.71 3.13 -15.85 3.11 C-15.52 2.45 -15.19 1.79 -14.85 1.11 C-9.93 -0.1 -5.03 -0.02 0 0 Z " fill="#979796" transform="translate(354.85107421875,357.886474609375)"/>
<path d="M0 0 C0.7 0.33 1.4 0.65 2.12 0.99 C5.33 2.12 7.76 2.23 11.16 2.21 C12.38 2.21 13.6 2.2 14.86 2.2 C16.18 2.19 17.5 2.17 18.86 2.16 C20.24 2.15 21.62 2.15 23.01 2.14 C26.66 2.13 30.31 2.11 33.96 2.08 C40.45 2.03 46.93 2 53.42 1.97 C54.11 1.97 54.8 1.97 55.51 1.96 C64.31 1.92 73.06 2.02 81.83 2.73 C85.43 3.01 88.5 2.9 92 2 C91.67 2.99 91.34 3.98 91 5 C63.28 5 35.56 5 7 5 C7 11.27 7 17.54 7 24 C6.67 24 6.34 24 6 24 C6 23.44 5.99 22.88 5.99 22.3 C5.95 19.76 5.88 17.23 5.81 14.69 C5.81 13.81 5.8 12.93 5.79 12.02 C5.71 9.58 5.59 7.37 5 5 C2.6 2.96 2.6 2.96 0 2 C0 1.34 0 0.68 0 0 Z " fill="#E2E1DF" transform="translate(56,366)"/>
<path d="M0 0 C29.7 0 59.4 0 90 0 C90 0.66 90 1.32 90 2 C85.82 3.01 81.9 3.13 77.61 3.13 C76.89 3.13 76.16 3.13 75.41 3.13 C73.02 3.14 70.63 3.14 68.24 3.13 C66.57 3.13 64.89 3.13 63.22 3.14 C59.71 3.14 56.21 3.14 52.7 3.13 C48.23 3.12 43.76 3.13 39.29 3.13 C35.83 3.14 32.38 3.14 28.92 3.13 C27.27 3.13 25.63 3.13 23.98 3.14 C15.59 3.15 7.33 3.05 -1 2 C-0.67 1.34 -0.34 0.68 0 0 Z " fill="#90908F" transform="translate(55,358)"/>
<path d="M0 0 C22.57 -0.1 45.13 -0.19 67.69 0.44 C68.45 0.46 69.21 0.48 69.99 0.5 C72.12 0.55 74.26 0.62 76.39 0.68 C78.17 0.74 78.17 0.74 79.99 0.79 C82.48 0.96 84.62 1.28 87 2 C87 2.66 87 3.32 87 4 C65.56 4.12 44.13 4.01 22.69 3.56 C21.66 3.54 20.64 3.52 19.59 3.5 C16.69 3.45 13.79 3.38 10.89 3.32 C9.58 3.29 9.58 3.29 8.24 3.27 C2.23 3.12 2.23 3.12 0 2 C0 1.34 0 0.68 0 0 Z " fill="#E2E1DF" transform="translate(346,367)"/>
<path d="M0 0 C81.51 0 163.02 0 247 0 C247 0.33 247 0.66 247 1 C165.49 1 83.98 1 0 1 C0 0.67 0 0.34 0 0 Z " fill="#000000" transform="translate(887,613)"/>
<path d="M0 0 C29.21 0.5 29.21 0.5 59 1 C59 1.33 59 1.66 59 2 C40.52 2 22.04 2 3 2 C3 13.22 3 24.44 3 36 C21.81 36 40.62 36 60 36 C59.5 36.99 59.5 36.99 59 38 C39.53 38 20.06 38 0 38 C0 36.02 0 34.04 0 32 C0.66 32 1.32 32 2 32 C2 30.35 2 28.7 2 27 C1.34 27 0.68 27 0 27 C0 25.02 0 23.04 0 21 C0.66 21 1.32 21 2 21 C2 19.68 2 18.36 2 17 C1.34 17 0.68 17 0 17 C0 11.39 0 5.78 0 0 Z " fill="#000000" transform="translate(795,424)"/>
<path d="M0 0 C3 1 3 1 5 3 C5.56 3.54 6.11 4.07 6.69 4.62 C8.61 6.6 10.4 8.6 12.19 10.69 C14.85 13.75 17.61 16.65 20.5 19.5 C23.99 22.94 27.25 26.51 30.45 30.22 C33.98 34.27 37.8 37.66 42 41 C44.31 43.12 44.31 43.12 46 45 C46 45.66 46 46.32 46 47 C46.99 47.33 47.98 47.66 49 48 C49 48.66 49 49.32 49 50 C49.74 50.25 50.49 50.5 51.25 50.75 C54.2 52.09 55.85 53.61 58 56 C56.22 56.67 56.22 56.67 54 57 C52.28 55.99 52.28 55.99 50.5 54.31 C49.48 53.36 49.48 53.36 48.44 52.38 C47.63 51.6 46.83 50.81 46 50 C45.49 49.51 44.98 49.02 44.46 48.52 C42.8 46.92 41.15 45.3 39.5 43.69 C38.96 43.16 38.42 42.63 37.86 42.09 C36.53 40.76 35.26 39.39 34 38 C34 37.34 34 36.68 34 36 C33.34 36 32.68 36 32 36 C29.88 34.12 29.88 34.12 28 32 C28 31.34 28 30.68 28 30 C27.34 30 26.68 30 26 30 C26 29.34 26 28.68 26 28 C25.42 27.75 24.84 27.49 24.25 27.23 C21.73 25.85 20.08 24.3 18.07 22.26 C17.33 21.52 16.6 20.79 15.85 20.03 C15.09 19.25 14.34 18.48 13.56 17.69 C12.81 16.93 12.06 16.17 11.29 15.38 C9.83 13.91 8.38 12.44 6.93 10.96 C5.33 9.34 3.72 7.74 2.09 6.14 C0 4 0 4 -2 1 C-1.34 0.67 -0.68 0.34 0 0 Z " fill="#989390" transform="translate(803,537)"/>
<path d="M0 0 C3.22 1.2 4.98 2.87 7.12 5.5 C12.27 11.58 17.98 17.12 23.74 22.61 C26 25 26 25 27 28 C29 29.21 29 29.21 31 30 C31 30.66 31 31.32 31 32 C31.58 32.23 32.15 32.45 32.75 32.69 C35.6 34.35 36.94 36.42 39 39 C40.99 40.84 43.04 42.6 45.1 44.36 C47.17 46.15 49.1 48.03 51 50 C51.66 50.66 52.32 51.32 53 52 C52.01 52.33 51.02 52.66 50 53 C47.96 51.64 47.96 51.64 45.81 49.69 C45.1 49.05 44.38 48.42 43.64 47.76 C42 46 42 46 42 44 C41.41 43.75 40.82 43.5 40.21 43.24 C37.71 41.84 36.38 40.34 34.56 38.12 C31.93 35 29.21 32.53 26 30 C26 29.34 26 28.68 26 28 C25.15 27.64 25.15 27.64 24.29 27.28 C21.51 25.73 19.65 23.84 17.44 21.56 C16.67 20.78 15.91 20 15.12 19.19 C14.42 18.47 13.72 17.75 13 17 C12.41 16.45 11.83 15.9 11.22 15.34 C10 14 10 14 10 12 C9.44 11.77 8.89 11.55 8.31 11.31 C3.96 8.84 0.85 5.06 -2 1 C-1.34 0.67 -0.68 0.34 0 0 Z " fill="#999491" transform="translate(975,220)"/>
<path d="M0 0 C51.81 0 103.62 0 157 0 C157 0.33 157 0.66 157 1 C105.19 1 53.38 1 0 1 C0 0.67 0 0.34 0 0 Z " fill="#000000" transform="translate(127,296)"/>
<path d="M0 0 C49.83 0 99.66 0 151 0 C151 0.33 151 0.66 151 1 C101.17 1 51.34 1 0 1 C0 0.67 0 0.34 0 0 Z " fill="#000000" transform="translate(875,124)"/>
<path d="M0 0 C0.99 0.33 1.98 0.66 3 1 C3 23.11 3 45.22 3 68 C2.67 68 2.34 68 2 68 C2 61.07 2 54.14 2 47 C1.34 47 0.68 47 0 47 C0 38.75 0 30.5 0 22 C0.66 22 1.32 22 2 22 C2 19.36 2 16.72 2 14 C1.34 14 0.68 14 0 14 C0 13.34 0 12.68 0 12 C0.66 12 1.32 12 2 12 C2 10.35 2 8.7 2 7 C1.34 7 0.68 7 0 7 C0 4.69 0 2.38 0 0 Z " fill="#000000" transform="translate(795,542)"/>
<path d="M0 0 C1.11 -0 1.11 -0 2.25 -0 C3.82 -0 5.38 -0 6.95 0 C9.31 0.01 11.67 0 14.03 -0 C22.12 -0.01 30.1 0.16 38.14 1.13 C38.14 1.46 38.14 1.79 38.14 2.13 C30.58 2.94 23.12 3.29 15.52 3.26 C13.97 3.25 13.97 3.25 12.39 3.25 C3.61 3.2 -5.11 2.8 -13.86 2.13 C-13.86 1.8 -13.86 1.47 -13.86 1.13 C-9.21 0.22 -4.72 -0.01 0 0 Z " fill="#E4E3E1" transform="translate(977.85546875,539.8671875)"/>
<path d="M0 0 C35.31 0 70.62 0 107 0 C107 0.33 107 0.66 107 1 C71.69 1 36.38 1 0 1 C0 0.67 0 0.34 0 0 Z " fill="#010101" transform="translate(117,613)"/>
<path d="M0 0 C34.98 0 69.96 0 106 0 C106 0.33 106 0.66 106 1 C71.02 1 36.04 1 0 1 C0 0.67 0 0.34 0 0 Z " fill="#010101" transform="translate(268,613)"/>
<path d="M0 0 C4.88 2.62 4.88 2.62 6 6 C7.32 6.7 8.65 7.36 10 8 C12.88 10.47 15.51 13.19 18.19 15.88 C18.92 16.6 19.66 17.32 20.42 18.06 C21.12 18.76 21.82 19.46 22.54 20.18 C23.18 20.82 23.82 21.45 24.48 22.11 C26.09 24.11 26.6 25.5 27 28 C26.01 28 25.02 28 24 28 C23.67 27.01 23.34 26.02 23 25 C21.54 23.52 21.54 23.52 19.69 22.06 C13.78 17.06 8.43 11.5 3 6 C1.67 4.67 0.33 3.33 -1 2 C-0.67 1.34 -0.34 0.68 0 0 Z " fill="#A9A6A4" transform="translate(1156,478)"/>
<path d="M0 0 C32.01 0 64.02 0 97 0 C97 0.33 97 0.66 97 1 C64.99 1 32.98 1 0 1 C0 0.67 0 0.34 0 0 Z " fill="#010101" transform="translate(1059,296)"/>
<path d="M0 0 C31.68 0 63.36 0 96 0 C96 0.33 96 0.66 96 1 C64.32 1 32.64 1 0 1 C0 0.67 0 0.34 0 0 Z " fill="#000000" transform="translate(591,613)"/>
<path d="M0 0 C31.35 0 62.7 0 95 0 C95 0.33 95 0.66 95 1 C63.65 1 32.3 1 0 1 C0 0.67 0 0.34 0 0 Z " fill="#010101" transform="translate(408,613)"/>
<path d="M0 0 C31.35 0 62.7 0 95 0 C95 0.33 95 0.66 95 1 C63.65 1 32.3 1 0 1 C0 0.67 0 0.34 0 0 Z " fill="#000000" transform="translate(764,296)"/>
<path d="M0 0 C31.35 0 62.7 0 95 0 C95 0.33 95 0.66 95 1 C63.65 1 32.3 1 0 1 C0 0.67 0 0.34 0 0 Z " fill="#010101" transform="translate(580,296)"/>
<path d="M0 0 C31.02 0 62.04 0 94 0 C94 0.33 94 0.66 94 1 C62.98 1 31.96 1 0 1 C0 0.67 0 0.34 0 0 Z " fill="#000000" transform="translate(1132,441)"/>
<path d="M0 0 C0.99 0 1.98 0 3 0 C1.5 3.12 -0.06 6.13 -2 9 C-2.99 9.33 -3.98 9.66 -5 10 C-5.7 11.32 -6.37 12.65 -7 14 C-8.89 16.14 -10.58 17.39 -13 19 C-13.5 19.5 -13.99 19.99 -14.5 20.5 C-16 22 -16 22 -19 24 C-20.32 24 -21.64 24 -23 24 C-23 23.34 -23 22.68 -23 22 C-22.41 21.91 -21.82 21.82 -21.21 21.73 C-18.41 20.8 -17.46 19.54 -15.62 17.25 C-13.47 14.66 -11.57 12.65 -8.94 10.5 C-5.77 7.81 -3.7 5 -1.39 1.57 C-0.93 1.05 -0.47 0.54 0 0 Z " fill="#C3C2C0" transform="translate(947,489)"/>
<path d="M0 0 C30.36 0 60.72 0 92 0 C92 0.33 92 0.66 92 1 C61.64 1 31.28 1 0 1 C0 0.67 0 0.34 0 0 Z " fill="#010101" transform="translate(703,613)"/>
<path d="M0 0 C30.36 0 60.72 0 92 0 C92 0.33 92 0.66 92 1 C61.64 1 31.28 1 0 1 C0 0.67 0 0.34 0 0 Z " fill="#010101" transform="translate(875,296)"/>
<path d="M0 0 C30.36 0 60.72 0 92 0 C92 0.33 92 0.66 92 1 C61.64 1 31.28 1 0 1 C0 0.67 0 0.34 0 0 Z " fill="#010101" transform="translate(418,296)"/>
<path d="M0 0 C3.6 0.31 4.99 0.99 7.81 3.38 C10 6 10 6 10 9 C10.58 9.25 11.15 9.5 11.75 9.75 C14.33 11.18 16.06 12.78 18 15 C18 15.66 18 16.32 18 17 C18.59 17.08 19.19 17.17 19.8 17.25 C22.64 18.22 23.51 19.51 25.25 21.94 C25.77 22.65 26.29 23.36 26.83 24.09 C28 26 28 26 28 28 C24.79 26.93 24.3 26.42 22.31 23.88 C20.07 21.15 17.76 18.84 15.06 16.56 C11.54 13.58 8.57 10.36 5.64 6.8 C4.02 4.9 4.02 4.9 1.8 3.39 C1.2 2.93 0.61 2.47 0 2 C0 1.34 0 0.68 0 0 Z " fill="#ABA8A6" transform="translate(308,164)"/>
<path d="M0 0 C1.32 0.66 2.64 1.32 4 2 C4 2.66 4 3.32 4 4 C4.58 4.23 5.15 4.45 5.75 4.69 C8.6 6.35 9.94 8.42 12 11 C13.99 12.84 16.04 14.6 18.1 16.36 C20.17 18.15 22.1 20.03 24 22 C24.66 22.66 25.32 23.32 26 24 C25.01 24.33 24.02 24.66 23 25 C20.96 23.64 20.96 23.64 18.81 21.69 C18.1 21.05 17.38 20.42 16.64 19.76 C15 18 15 18 15 16 C14.41 15.75 13.82 15.5 13.21 15.24 C10.72 13.85 9.38 12.38 7.56 10.19 C4.83 6.96 2.03 3.94 -1 1 C-0.67 0.67 -0.34 0.34 0 0 Z " fill="#989390" transform="translate(1002,248)"/>
<path d="M0 0 C12.05 -0.11 23.99 -0.15 36 1 C36 1.66 36 2.32 36 3 C31.5 3.06 27 3.09 22.5 3.12 C21.23 3.14 19.96 3.16 18.66 3.18 C12.07 3.21 6.29 3.02 0 1 C0 0.67 0 0.34 0 0 Z " fill="#E4E3E1" transform="translate(1111,223)"/>
<path d="M0 0 C0.33 0 0.66 0 1 0 C1 25.74 1 51.48 1 78 C0.67 78 0.34 78 0 78 C0 52.26 0 26.52 0 0 Z " fill="#010101" transform="translate(1157,216)"/>
<path d="M0 0 C1.32 0 2.64 0 4 0 C4 0.66 4 1.32 4 2 C32.71 1.5 32.71 1.5 62 1 C61.67 2.32 61.34 3.64 61 5 C60.5 4.5 60.5 4.5 60 4 C58.07 3.88 56.13 3.82 54.2 3.79 C52.95 3.77 51.71 3.75 50.43 3.73 C49.07 3.72 47.7 3.7 46.34 3.68 C44.95 3.66 43.56 3.64 42.17 3.62 C38.51 3.57 34.85 3.52 31.19 3.47 C27.46 3.42 23.72 3.36 19.99 3.31 C12.66 3.2 5.33 3.1 -2 3 C-1.34 2.67 -0.68 2.34 0 2 C0 1.34 0 0.68 0 0 Z " fill="#050505" transform="translate(691,262)"/>
<path d="M0 0 C0.99 0.33 1.98 0.66 3 1 C3 23.44 3 45.88 3 69 C2.67 69 2.34 69 2 69 C2 47.55 2 26.1 2 4 C1.34 4 0.68 4 0 4 C0 2.68 0 1.36 0 0 Z " fill="#020202" transform="translate(967,225)"/>
<path d="M0 0 C4.02 -0.02 8.04 -0.04 12.06 -0.05 C13.43 -0.06 14.79 -0.07 16.16 -0.08 C18.13 -0.09 20.1 -0.09 22.07 -0.1 C23.85 -0.11 23.85 -0.11 25.66 -0.11 C28.86 -0 31.85 0.39 35 1 C35 1.33 35 1.66 35 2 C31.06 2.2 27.13 2.38 23.19 2.56 C22.09 2.62 20.99 2.67 19.85 2.73 C12.8 3.04 6.01 2.84 -1 2 C-0.67 1.34 -0.34 0.68 0 0 Z " fill="#E4E3E1" transform="translate(889,164)"/>
<path d="M0 0 C0.66 0 1.32 0 2 0 C2 0.66 2 1.32 2 2 C21.8 1.67 41.6 1.34 62 1 C62 2.65 62 4.3 62 6 C61.34 5.34 60.68 4.68 60 4 C57.29 3.67 57.29 3.67 54.08 3.68 C52.84 3.66 51.6 3.64 50.32 3.62 C48.96 3.61 47.6 3.6 46.24 3.59 C44.85 3.57 43.47 3.55 42.08 3.53 C38.43 3.48 34.77 3.44 31.12 3.4 C27.39 3.36 23.67 3.31 19.94 3.26 C12.63 3.16 5.31 3.08 -2 3 C-1.34 2.67 -0.68 2.34 0 2 C0 1.34 0 0.68 0 0 Z " fill="#040404" transform="translate(519,579)"/>
<path d="M0 0 C0.99 0 1.98 0 3 0 C3.39 0.89 3.78 1.77 4.19 2.69 C7.87 9.43 13.67 12.99 20 17 C19.67 17.99 19.34 18.98 19 20 C12.82 19.31 9.17 13.09 5.43 8.64 C3.9 6.84 3.9 6.84 1.62 4.75 C0 3 0 3 0 0 Z " fill="#9F9B98" transform="translate(1018,472)"/>
<path d="M0 0 C3 1 3 1 5 3 C5.64 3.6 6.28 4.2 6.94 4.81 C9 7 9 7 10.38 9.31 C13.49 14.46 17.68 18.84 22 23 C21.67 23.66 21.34 24.32 21 25 C8.99 12.99 8.99 12.99 6.9 10.9 C5.75 9.75 4.6 8.61 3.44 7.47 C1.31 5.39 -0.34 3.49 -2 1 C-1.34 0.67 -0.68 0.34 0 0 Z " fill="#9E9A97" transform="translate(803,537)"/>
<path d="M0 0 C4.51 2.65 6.12 4.24 8 9 C9.65 9.7 11.32 10.37 13 11 C13.68 12.33 14.35 13.66 15 15 C17.05 15.81 17.05 15.81 19 16 C18.67 16.99 18.34 17.98 18 19 C13.65 18.56 11.31 15.68 8.44 12.69 C7.96 12.2 7.47 11.71 6.98 11.21 C0 4.08 0 4.08 0 0 Z " fill="#A19E9B" transform="translate(169,156)"/>
<path d="M0 0 C3.92 -0.06 7.83 -0.09 11.75 -0.12 C12.86 -0.14 13.97 -0.16 15.12 -0.18 C16.72 -0.19 16.72 -0.19 18.36 -0.2 C19.34 -0.21 20.33 -0.22 21.34 -0.23 C24.06 0.01 25.68 0.61 28 2 C22.93 3.03 18.08 3.15 12.94 3.12 C12.15 3.13 11.36 3.13 10.54 3.14 C6.56 3.13 2.89 2.99 -1 2 C-0.67 1.34 -0.34 0.68 0 0 Z " fill="#E4E3E1" transform="translate(141,223)"/>
<path d="M0 0 C0.33 0 0.66 0 1 0 C2.14 10.91 3.09 22.17 1 33 C0.34 33 -0.32 33 -1 33 C-1.03 29.19 -1.05 25.38 -1.06 21.56 C-1.07 20.49 -1.08 19.42 -1.09 18.32 C-1.11 12.12 -0.82 6.15 0 0 Z " fill="#E2E1DF" transform="translate(164,109)"/>
<path d="M0 0 C1.32 0.33 2.64 0.66 4 1 C1.56 4.22 -0.76 6.62 -4 9 C-4.99 10.49 -4.99 10.49 -6 12 C-7.32 13.67 -8.66 15.34 -10 17 C-10.99 16.67 -11.98 16.34 -13 16 C-11.48 12.38 -9.32 10.14 -6.5 7.44 C-3.97 5 -1.95 2.93 0 0 Z " fill="#B6B4B2" transform="translate(1119,172)"/>
<path d="M0 0 C4.88 2.62 4.88 2.62 6 6 C7.32 6.7 8.65 7.37 10 8 C11.81 9.38 11.81 9.38 13 11 C12.57 13.1 12.57 13.1 12 15 C7.67 10.67 3.33 6.33 -1 2 C-0.67 1.34 -0.34 0.68 0 0 Z " fill="#ADABA8" transform="translate(1156,478)"/>
<path d="M0 0 C0.66 0.33 1.32 0.66 2 1 C-3.94 6.94 -9.88 12.88 -16 19 C-16.33 18.34 -16.66 17.68 -17 17 C-5.75 3.83 -5.75 3.83 0 0 Z " fill="#B6B5B3" transform="translate(1041,378)"/>
<path d="M0 0 C3.77 1.56 6.11 3.91 8.94 6.81 C9.77 7.66 10.61 8.52 11.46 9.39 C12.72 10.68 12.72 10.68 14 12 C14.93 12.87 15.86 13.74 16.82 14.64 C19 17 19 17 19 20 C18.34 20 17.68 20 17 20 C17 19.34 17 18.68 17 18 C16.34 18 15.68 18 15 18 C15 17.34 15 16.68 15 16 C14.4 15.77 13.8 15.55 13.19 15.31 C11 14 11 14 9.75 11.88 C7.53 8.23 4.71 5.61 1.64 2.67 C0 1 0 1 0 0 Z " fill="#9E9996" transform="translate(814,549)"/>
<path d="M0 0 C0.66 0 1.32 0 2 0 C1.67 1.65 1.34 3.3 1 5 C0.34 5 -0.32 5 -1 5 C-1.43 5.87 -1.43 5.87 -1.88 6.75 C-2.25 7.49 -2.62 8.24 -3 9 C-3.25 9.7 -3.5 10.4 -3.75 11.12 C-5.6 13.89 -7.88 14.18 -11 15 C-10.67 13.68 -10.34 12.36 -10 11 C-9.34 11 -8.68 11 -8 11 C-8 10.34 -8 9.68 -8 9 C-6.5 7.76 -4.99 6.52 -3.47 5.31 C-1.71 3.74 -0.81 2.2 0 0 Z " fill="#B9B7B4" transform="translate(334,252)"/>
<path d="M0 0 C0.99 0.33 1.98 0.66 3 1 C3 4.96 3 8.92 3 13 C2.01 13.5 2.01 13.5 1 14 C-0.38 11.24 -0.1 8.95 -0.06 5.88 C-0.05 4.78 -0.04 3.68 -0.04 2.55 C-0.02 1.71 -0.01 0.87 0 0 Z " fill="#CECDCB" transform="translate(705,143)"/>
<path d="M0 0 C3.95 -0.05 7.9 -0.09 11.85 -0.11 C13.86 -0.12 15.87 -0.15 17.87 -0.18 C19.13 -0.18 20.38 -0.19 21.68 -0.2 C22.84 -0.21 24 -0.22 25.2 -0.23 C28 0 28 0 30 2 C30.12 4.62 30.12 4.62 30 7 C29.9 6.36 29.79 5.72 29.69 5.06 C29.46 4.38 29.23 3.7 29 3 C25.82 1.94 23.36 1.8 20.02 1.68 C18.86 1.64 17.69 1.6 16.49 1.56 C14.67 1.5 14.67 1.5 12.81 1.44 C11.59 1.39 10.36 1.35 9.1 1.31 C6.06 1.2 3.03 1.1 0 1 C0 0.67 0 0.34 0 0 Z " fill="#E1E0DE" transform="translate(386,122)"/>
<path d="M0 0 C0.66 0 1.32 0 2 0 C2 0.66 2 1.32 2 2 C2.59 2.08 3.19 2.17 3.8 2.25 C6.64 3.22 7.51 4.51 9.25 6.94 C9.77 7.65 10.29 8.36 10.83 9.09 C12 11 12 11 12 13 C6.28 11.09 2.8 5.14 0 0 Z " fill="#B7B5B3" transform="translate(324,179)"/>
<path d="M0 0 C0.99 0.66 1.98 1.32 3 2 C3 2.66 3 3.32 3 4 C4.32 4.33 5.64 4.66 7 5 C6.67 5.99 6.34 6.98 6 8 C2.21 7.46 0.45 5.88 -2 3 C-2 2.34 -2 1.68 -2 1 C-1.34 0.67 -0.68 0.34 0 0 Z " fill="#B4B3B1" transform="translate(181,167)"/>
<path d="M0 0 C4.83 0.41 6.83 2.46 10 6 C8.38 6.81 8.38 6.81 6 7 C2.75 4.69 2.75 4.69 0 2 C0 1.34 0 0.68 0 0 Z " fill="#B6B4B2" transform="translate(851,587)"/>
<path d="M0 0 C0.33 0 0.66 0 1 0 C1 4.95 1 9.9 1 15 C0.34 14.67 -0.32 14.34 -1 14 C-1.48 11.86 -1.48 11.86 -1.75 9.19 C-1.85 8.31 -1.95 7.44 -2.05 6.54 C-2 3.79 -1.41 2.33 0 0 Z " fill="#CFCECC" transform="translate(233,545)"/>
<path d="M0 0 C0.66 0.33 1.32 0.66 2 1 C0.55 4.83 -1.33 6.25 -5 8 C-6.32 8 -7.64 8 -9 8 C-9 7.34 -9 6.68 -9 6 C-8.16 5.91 -8.16 5.91 -7.31 5.81 C-4.05 4.67 -2.31 2.51 0 0 Z " fill="#A09E9B" transform="translate(933,505)"/>
<path d="M0 0 C-1.5 3.11 -3.2 6.05 -5 9 C-5.99 8.01 -6.98 7.02 -8 6 C-3.38 0 -3.38 0 0 0 Z " fill="#B6B4B2" transform="translate(950,489)"/>
<path d="M0 0 C2.64 3.13 3.84 6.09 5 10 C2.98 9.4 0.98 8.73 -1 8 C-2 6 -2 6 -1.06 2.88 C-0.54 1.45 -0.54 1.45 0 0 Z " fill="#999896" transform="translate(580,278)"/>
<path d="M0 0 C1.32 0 2.64 0 4 0 C6.31 2.31 6.31 2.31 8 5 C7.67 5.99 7.34 6.98 7 8 C5.83 7.05 4.66 6.09 3.5 5.12 C2.85 4.59 2.2 4.06 1.53 3.51 C1.03 3.01 0.52 2.51 0 2 C0 1.34 0 0.68 0 0 Z " fill="#9D9895" transform="translate(994,241)"/>
<path d="M0 0 C3.38 1.13 4.47 2 6.12 5.12 C6.41 5.74 6.7 6.36 7 7 C3.33 6.69 2.22 6.24 -0.31 3.44 C-0.87 2.63 -1.43 1.83 -2 1 C-1.34 0.67 -0.68 0.34 0 0 Z " fill="#B6B4B2" transform="translate(803,537)"/>
<path d="M0 0 C0.99 0 1.98 0 3 0 C3 1.32 3 2.64 3 4 C4.65 4 6.3 4 8 4 C8 4.66 8 5.32 8 6 C5.36 6 2.72 6 0 6 C0 4.02 0 2.04 0 0 Z " fill="#010101" transform="translate(795,456)"/>
<path d="M0 0 C3.82 0.55 5.45 2.2 8 5 C8.66 5.66 9.32 6.32 10 7 C9.01 7.33 8.02 7.66 7 8 C5.18 6.86 5.18 6.86 3.31 5.19 C2.38 4.37 2.38 4.37 1.43 3.54 C0 2 0 2 0 0 Z " fill="#9C9895" transform="translate(1018,265)"/>
<path d="M0 0 C2.92 1.13 4.99 2.59 7 5 C7 5.66 7 6.32 7 7 C3.33 6.69 2.22 6.24 -0.31 3.44 C-0.87 2.63 -1.43 1.83 -2 1 C-1.34 0.67 -0.68 0.34 0 0 Z " fill="#AFADAB" transform="translate(975,220)"/>
<path d="M0 0 C0 3 0 3 -2.25 5.62 C-4.73 7.77 -5.84 8.65 -9 9 C-8.34 7.68 -7.68 6.36 -7 5 C-6.34 5 -5.68 5 -5 5 C-3.29 3.37 -1.62 1.71 0 0 Z " fill="#A6A3A0" transform="translate(1105,188)"/>
<path d="M0 0 C0 0.99 0 1.98 0 3 C-4.16 3.08 -7.95 2.98 -12 2 C-12 1.67 -12 1.34 -12 1 C-7.94 0.23 -4.14 -0.1 0 0 Z " fill="#E4E3E1" transform="translate(563,524)"/>
<path d="M0 0 C0.99 0 1.98 0 3 0 C7 6.75 7 6.75 7 9 C6.34 9 5.68 9 5 9 C0 3.64 0 3.64 0 0 Z " fill="#B4B3B0" transform="translate(1018,472)"/>
<path d="M0 0 C0.33 0 0.66 0 1 0 C1 3.63 1 7.26 1 11 C0.67 11 0.34 11 0 11 C-0.19 9.35 -0.38 7.71 -0.56 6.06 C-0.67 5.15 -0.77 4.23 -0.88 3.29 C-0.92 2.53 -0.96 1.78 -1 1 C-0.67 0.67 -0.34 0.34 0 0 Z " fill="#090909" transform="translate(1141,130)"/>
<path d="M0 0 C0.33 0 0.66 0 1 0 C1 2.97 1 5.94 1 9 C-1.09 4.82 -1.17 4.2 0 0 Z " fill="#0E0E0D" transform="translate(969,447)"/>
<path d="M0 0 C0.33 0 0.66 0 1 0 C1 2.64 1 5.28 1 8 C0.67 8 0.34 8 0 8 C0 5.36 0 2.72 0 0 Z " fill="#050505" transform="translate(242,544)"/>
<path d="M0 0 C0.33 0 0.66 0 1 0 C1 1.65 1 3.3 1 5 C0.34 4.67 -0.32 4.34 -1 4 C-0.67 2.68 -0.34 1.36 0 0 Z " fill="#111110" transform="translate(544,457)"/>
<path d="M0 0 C0.66 0 1.32 0 2 0 C2 1.65 2 3.3 2 5 C1.34 4.34 0.68 3.68 0 3 C0 2.01 0 1.02 0 0 Z " fill="#171716" transform="translate(344,204)"/>
<path d="M0 0 C0.33 0.99 0.66 1.98 1 3 C0.34 3.66 -0.32 4.32 -1 5 C-0.67 3.35 -0.34 1.7 0 0 Z " fill="#20201F" transform="translate(388,565)"/>
<path d="M0 0 C0.33 0.66 0.66 1.32 1 2 C0.06 4.12 0.06 4.12 -1 6 C-1.04 4.33 -1.04 2.67 -1 1 C-0.67 0.67 -0.34 0.34 0 0 Z " fill="#000000" transform="translate(399,522)"/>
<path d="M0 0 C1.06 1.88 1.06 1.88 2 4 C1.67 4.66 1.34 5.32 1 6 C0 5 0 5 -0.06 2.44 C-0.04 1.63 -0.02 0.83 0 0 Z " fill="#060606" transform="translate(1194,520)"/>
<path d="M0 0 C0.33 0 0.66 0 1 0 C1 2.31 1 4.62 1 7 C0.67 7 0.34 7 0 7 C0 4.69 0 2.38 0 0 Z " fill="#060606" transform="translate(662,502)"/>
<path d="M0 0 C0.66 0.66 1.32 1.32 2 2 C1.67 2.99 1.34 3.98 1 5 C0.67 3.35 0.34 1.7 0 0 Z " fill="#1A1A19" transform="translate(656,483)"/>
<path d="M0 0 C0.33 0 0.66 0 1 0 C1 2.31 1 4.62 1 7 C0.67 7 0.34 7 0 7 C0 4.69 0 2.38 0 0 Z " fill="#000000" transform="translate(167,422)"/>
<path d="M0 0 C0.33 0 0.66 0 1 0 C1 2.31 1 4.62 1 7 C0.67 7 0.34 7 0 7 C0 4.69 0 2.38 0 0 Z " fill="#060606" transform="translate(425,421)"/>
<path d="M0 0 C0.33 1.32 0.66 2.64 1 4 C0.34 4 -0.32 4 -1 4 C-0.67 2.68 -0.34 1.36 0 0 Z " fill="#131312" transform="translate(431,399)"/>
<path d="M0 0 C0.33 0 0.66 0 1 0 C1 2.31 1 4.62 1 7 C0.67 7 0.34 7 0 7 C0 4.69 0 2.38 0 0 Z " fill="#060606" transform="translate(436,378)"/>
<path d="M0 0 C0.33 0 0.66 0 1 0 C1 2.31 1 4.62 1 7 C0.67 7 0.34 7 0 7 C0 4.69 0 2.38 0 0 Z " fill="#060606" transform="translate(834,185)"/>
<path d="M0 0 C0.33 0 0.66 0 1 0 C1 2.31 1 4.62 1 7 C0.67 7 0.34 7 0 7 C0 4.69 0 2.38 0 0 Z " fill="#000000" transform="translate(716,140)"/>
<path d="M0 0 C0.33 0 0.66 0 1 0 C1 1.98 1 3.96 1 6 C0.67 6 0.34 6 0 6 C0 4.02 0 2.04 0 0 Z " fill="#000000" transform="translate(382,587)"/>
<path d="M0 0 C0.33 0 0.66 0 1 0 C1 1.98 1 3.96 1 6 C0.67 6 0.34 6 0 6 C0 4.02 0 2.04 0 0 Z " fill="#000000" transform="translate(393,544)"/>
<path d="M0 0 C0.33 0 0.66 0 1 0 C1 1.98 1 3.96 1 6 C0.67 6 0.34 6 0 6 C0 4.02 0 2.04 0 0 Z " fill="#000000" transform="translate(404,501)"/>
<path d="M0 0 C0.33 0 0.66 0 1 0 C1 1.98 1 3.96 1 6 C0.67 6 0.34 6 0 6 C0 4.02 0 2.04 0 0 Z " fill="#070707" transform="translate(538,480)"/>
<path d="M0 0 C0.33 0 0.66 0 1 0 C1 1.98 1 3.96 1 6 C0.67 6 0.34 6 0 6 C0 4.02 0 2.04 0 0 Z " fill="#000000" transform="translate(651,460)"/>
<path d="M0 0 C0.33 0 0.66 0 1 0 C1 1.98 1 3.96 1 6 C0.67 6 0.34 6 0 6 C0 4.02 0 2.04 0 0 Z " fill="#070707" transform="translate(705,184)"/>
<path d="M0 0 C0.33 0 0.66 0 1 0 C1 1.98 1 3.96 1 6 C0.67 6 0.34 6 0 6 C0 4.02 0 2.04 0 0 Z " fill="#000000" transform="translate(823,143)"/>
<path d="M0 0 C0.33 0 0.66 0 1 0 C1 1.98 1 3.96 1 6 C0.67 6 0.34 6 0 6 C0 4.02 0 2.04 0 0 Z " fill="#070707" transform="translate(802,63)"/>
<path d="M0 0 C0.99 0.33 1.98 0.66 3 1 C1.68 1.33 0.36 1.66 -1 2 C-0.67 1.34 -0.34 0.68 0 0 Z " fill="#242423" transform="translate(1147,607)"/>
<path d="M0 0 C0.33 0 0.66 0 1 0 C1 1.65 1 3.3 1 5 C0.67 5 0.34 5 0 5 C0 3.35 0 1.7 0 0 Z " fill="#000000" transform="translate(511,587)"/>
<path d="M0 0 C0.33 0 0.66 0 1 0 C1 1.65 1 3.3 1 5 C0.67 5 0.34 5 0 5 C0 3.35 0 1.7 0 0 Z " fill="#000000" transform="translate(237,565)"/>
<path d="M0 0 C0.33 0 0.66 0 1 0 C1 1.65 1 3.3 1 5 C0.67 5 0.34 5 0 5 C0 3.35 0 1.7 0 0 Z " fill="#000000" transform="translate(678,563)"/>
<path d="M0 0 C0.33 0 0.66 0 1 0 C1 1.65 1 3.3 1 5 C0.67 5 0.34 5 0 5 C0 3.35 0 1.7 0 0 Z " fill="#000000" transform="translate(533,501)"/>
<path d="M0 0 C0.33 0 0.66 0 1 0 C1 1.65 1 3.3 1 5 C0.67 5 0.34 5 0 5 C0 3.35 0 1.7 0 0 Z " fill="#000000" transform="translate(963,474)"/>
<path d="M0 0 C0.33 0 0.66 0 1 0 C1 1.65 1 3.3 1 5 C0.67 5 0.34 5 0 5 C0 3.35 0 1.7 0 0 Z " fill="#2E2E2C" transform="translate(968,460)"/>
<path d="M0 0 C0.33 0 0.66 0 1 0 C1 1.65 1 3.3 1 5 C0.67 5 0.34 5 0 5 C0 3.35 0 1.7 0 0 Z " fill="#000000" transform="translate(640,418)"/>
<path d="M0 0 C0.33 0 0.66 0 1 0 C1 1.65 1 3.3 1 5 C0.67 5 0.34 5 0 5 C0 3.35 0 1.7 0 0 Z " fill="#090908" transform="translate(312,402)"/>
<path d="M0 0 C0.33 0 0.66 0 1 0 C1 1.65 1 3.3 1 5 C0.67 5 0.34 5 0 5 C0 3.35 0 1.7 0 0 Z " fill="#090908" transform="translate(630,381)"/>
<path d="M0 0 C0.33 0 0.66 0 1 0 C1 1.65 1 3.3 1 5 C0.67 5 0.34 5 0 5 C0 3.35 0 1.7 0 0 Z " fill="#000000" transform="translate(156,380)"/>
<path d="M0 0 C1.32 0.33 2.64 0.66 4 1 C2.68 1.33 1.36 1.66 0 2 C0 1.34 0 0.68 0 0 Z " fill="#242423" transform="translate(297,290)"/>
<path d="M0 0 C0.66 1.32 1.32 2.64 2 4 C1.34 3.67 0.68 3.34 0 3 C0 2.01 0 1.02 0 0 Z " fill="#1B1B1A" transform="translate(855,269)"/>
<path d="M0 0 C0.33 0 0.66 0 1 0 C1 1.65 1 3.3 1 5 C0.67 5 0.34 5 0 5 C0 3.35 0 1.7 0 0 Z " fill="#000000" transform="translate(850,246)"/>
<path d="M0 0 C0.33 0 0.66 0 1 0 C1 1.65 1 3.3 1 5 C0.67 5 0.34 5 0 5 C0 3.35 0 1.7 0 0 Z " fill="#000000" transform="translate(710,163)"/>
<path d="M0 0 C0.33 0 0.66 0 1 0 C1 1.65 1 3.3 1 5 C0.67 5 0.34 5 0 5 C0 3.35 0 1.7 0 0 Z " fill="#000000" transform="translate(1135,157)"/>
<path d="M0 0 C1 4 1 4 1 4 Z " fill="#2E2E2C" transform="translate(683,585)"/>
<path d="M0 0 C1 4 1 4 1 4 Z " fill="#0B0B0B" transform="translate(1194,560)"/>
<path d="M0 0 C1 4 1 4 1 4 Z " fill="#000000" transform="translate(409,485)"/>
<path d="M0 0 C1 4 1 4 1 4 Z " fill="#2E2E2C" transform="translate(414,464)"/>
<path d="M0 0 C1 4 1 4 1 4 Z " fill="#000000" transform="translate(420,442)"/>
<path d="M0 0 C1 4 1 4 1 4 Z " fill="#000000" transform="translate(318,425)"/>
<path d="M0 0 C1 4 1 4 1 4 Z " fill="#2E2E2C" transform="translate(968,423)"/>
<path d="M0 0 C1 4 1 4 1 4 Z " fill="#0B0B0B" transform="translate(162,404)"/>
<path d="M0 0 C1 4 1 4 1 4 Z " fill="#0B0B0B" transform="translate(307,382)"/>
<path d="M0 0 C1 4 1 4 1 4 Z " fill="#000000" transform="translate(683,271)"/>
<path d="M0 0 C1 4 1 4 1 4 Z " fill="#2E2E2C" transform="translate(344,244)"/>
<path d="M0 0 C1 4 1 4 1 4 Z " fill="#000000" transform="translate(839,203)"/>
<path d="M0 0 C1 4 1 4 1 4 Z " fill="#0B0B0B" transform="translate(829,167)"/>
<path d="M0 0 C1 4 1 4 1 4 Z " fill="#0B0B0B" transform="translate(818,124)"/>
<path d="M0 0 C1 4 1 4 1 4 Z " fill="#2E2E2C" transform="translate(812,102)"/>
<path d="M0 0 C3 1 3 1 3 1 Z " fill="#000000" transform="translate(1158,602)"/>
<path d="M0 0 C3 1 3 1 3 1 Z " fill="#000000" transform="translate(862,602)"/>
<path d="" fill="#2E2E2C" transform="translate(0,0)"/>
<path d="" fill="#FDFDFD" transform="translate(0,0)"/>
<path d="" fill="#000000" transform="translate(0,0)"/>
<path d="" fill="#2E2E2C" transform="translate(0,0)"/>
<path d="M0 0 C3 1 3 1 3 1 Z " fill="#FDFDFD" transform="translate(857,456)"/>
<path d="" fill="#000000" transform="translate(0,0)"/>
<path d="" fill="#FDFDFD" transform="translate(0,0)"/>
<path d="" fill="#0F0F0E" transform="translate(0,0)"/>
<path d="M0 0 C3 1 3 1 3 1 Z " fill="#FDFDFD" transform="translate(1057,359)"/>
<path d="M0 0 C3 1 3 1 3 1 Z " fill="#000000" transform="translate(308,285)"/>
<path d="" fill="#0F0F0E" transform="translate(0,0)"/>
<path d="" fill="#000000" transform="translate(0,0)"/>
<path d="" fill="#FDFDFD" transform="translate(0,0)"/>
<path d="M0 0 C2 1 2 1 2 1 Z " fill="#2E2E2C" transform="translate(921,521)"/>
<path d="M0 0 C2 1 2 1 2 1 Z " fill="#000000" transform="translate(1040,500)"/>
<path d="" fill="#000000" transform="translate(0,0)"/>
<path d="" fill="#FDFDFD" transform="translate(0,0)"/>
<path d="" fill="#171716" transform="translate(0,0)"/>
<path d="" fill="#000000" transform="translate(0,0)"/>
<path d="M0 0 C2 1 2 1 2 1 Z " fill="#2E2E2C" transform="translate(1093,204)"/>
<path d="" fill="#000000" transform="translate(0,0)"/>
<path d="" fill="#2E2E2C" transform="translate(0,0)"/>
<path d="" fill="#545351" transform="translate(0,0)"/>
<path d="" fill="#2E2E2C" transform="translate(0,0)"/>
<path d="" fill="#545351" transform="translate(0,0)"/>
<path d="" fill="#000000" transform="translate(0,0)"/>
<path d="" fill="#2E2E2C" transform="translate(0,0)"/>
<path d="" fill="#2E2E2C" transform="translate(0,0)"/>
<path d="" fill="#000000" transform="translate(0,0)"/>
<path d="" fill="#E4E3E1" transform="translate(0,0)"/>
<path d="" fill="#000000" transform="translate(0,0)"/>
<path d="" fill="#000000" transform="translate(0,0)"/>
<path d="" fill="#E4E3E1" transform="translate(0,0)"/>
<path d="" fill="#FDFDFD" transform="translate(0,0)"/>
<path d="" fill="#000000" transform="translate(0,0)"/>
<path d="" fill="#000000" transform="translate(0,0)"/>
<path d="" fill="#000000" transform="translate(0,0)"/>
<path d="" fill="#FDFDFD" transform="translate(0,0)"/>
<path d="" fill="#000000" transform="translate(0,0)"/>
<path d="" fill="#000000" transform="translate(0,0)"/>
<path d="" fill="#2E2E2C" transform="translate(0,0)"/>
<path d="" fill="#2E2E2C" transform="translate(0,0)"/>
<path d="" fill="#E4E3E1" transform="translate(0,0)"/>
<path d="" fill="#FDFDFD" transform="translate(0,0)"/>
<path d="" fill="#E4E3E1" transform="translate(0,0)"/>
<path d="" fill="#000000" transform="translate(0,0)"/>
<path d="" fill="#2E2E2C" transform="translate(0,0)"/>
<path d="" fill="#2E2E2C" transform="translate(0,0)"/>
<path d="" fill="#000000" transform="translate(0,0)"/>
<path d="" fill="#FDFDFD" transform="translate(0,0)"/>
<path d="" fill="#E4E3E1" transform="translate(0,0)"/>
<path d="" fill="#000000" transform="translate(0,0)"/>
<path d="" fill="#000000" transform="translate(0,0)"/>
<path d="" fill="#2E2E2C" transform="translate(0,0)"/>
<path d="" fill="#2E2E2C" transform="translate(0,0)"/>
<path d="" fill="#2E2E2C" transform="translate(0,0)"/>
<path d="" fill="#2E2E2C" transform="translate(0,0)"/>
<path d="" fill="#2E2E2C" transform="translate(0,0)"/>
<path d="" fill="#545351" transform="translate(0,0)"/>
<path d="" fill="#000000" transform="translate(0,0)"/>
<path d="" fill="#E4E3E1" transform="translate(0,0)"/>
<path d="" fill="#2E2E2C" transform="translate(0,0)"/>
<path d="" fill="#2E2E2C" transform="translate(0,0)"/>
<path d="" fill="#000000" transform="translate(0,0)"/>
<path d="" fill="#2E2E2C" transform="translate(0,0)"/>
<path d="" fill="#2E2E2C" transform="translate(0,0)"/>
<path d="" fill="#000000" transform="translate(0,0)"/>
<path d="" fill="#FDFDFD" transform="translate(0,0)"/>
<path d="" fill="#FDFDFD" transform="translate(0,0)"/>
<path d="" fill="#000000" transform="translate(0,0)"/>
<path d="" fill="#000000" transform="translate(0,0)"/>
<path d="" fill="#FDFDFD" transform="translate(0,0)"/>
<path d="" fill="#2E2E2C" transform="translate(0,0)"/>
<path d="" fill="#2E2E2C" transform="translate(0,0)"/>
<path d="" fill="#B6B5B3" transform="translate(0,0)"/>
<path d="" fill="#000000" transform="translate(0,0)"/>
<path d="" fill="#FDFDFD" transform="translate(0,0)"/>
<path d="" fill="#FDFDFD" transform="translate(0,0)"/>
<path d="" fill="#2E2E2C" transform="translate(0,0)"/>
</svg>
